<svg width="525.0" height="340"  xmlns="http://www.w3.org/2000/svg">
<path stroke-width="0.1" stroke="black" d="M 457 233 467 297"/>
<path stroke-width="0.1" stroke="black" d="M 341 116 398 135"/>
<path stroke-width="0.1" stroke="black" d="M 341 116 457 220"/>
<path stroke-width="0.1" stroke="black" d="M 341 116 417 60"/>
<path stroke-width="0.1" stroke="black" d="M 449 50 431 113"/>
<path stroke-width="0.1" stroke="black" d="M 449 50 360 126"/>
<path stroke-width="0.1" stroke="black" d="M 449 50 360 126"/>
<path stroke-width="0.1" stroke="black" d="M 449 50 285 97"/>
<path stroke-width="0.1" stroke="black" d="M 449 50 455 24"/>
<path stroke-width="0.1" stroke="black" d="M 449 50 404 68"/>
<path stroke-width="0.1" stroke="black" d="M 449 50 450 37"/>
<path stroke-width="0.1" stroke="black" d="M 341 116 398 61"/>
<path stroke-width="0.1" stroke="black" d="M 449 50 398 135"/>
<path stroke-width="0.1" stroke="black" d="M 449 50 417 60"/>
<path stroke-width="0.1" stroke="black" d="M 419 76 431 113"/>
<path stroke-width="0.1" stroke="black" d="M 419 76 285 97"/>
<path stroke-width="0.1" stroke="black" d="M 419 76 360 126"/>
<path stroke-width="0.1" stroke="black" d="M 419 76 404 68"/>
<path stroke-width="0.1" stroke="black" d="M 419 76 398 61"/>
<path stroke-width="0.1" stroke="black" d="M 419 76 450 37"/>
<path stroke-width="0.1" stroke="black" d="M 419 76 398 135"/>
<path stroke-width="0.1" stroke="black" d="M 419 76 441 173"/>
<path stroke-width="0.1" stroke="black" d="M 419 76 457 220"/>
<path stroke-width="0.1" stroke="black" d="M 449 50 457 220"/>
<path stroke-width="0.1" stroke="black" d="M 341 116 285 97"/>
<path stroke-width="0.1" stroke="black" d="M 341 116 360 126"/>
<path stroke-width="0.1" stroke="black" d="M 341 116 153 120"/>
<path stroke-width="0.1" stroke="black" d="M 341 74 431 113"/>
<path stroke-width="0.1" stroke="black" d="M 341 74 153 120"/>
<path stroke-width="0.1" stroke="black" d="M 341 74 360 126"/>
<path stroke-width="0.1" stroke="black" d="M 341 74 360 126"/>
<path stroke-width="0.1" stroke="black" d="M 341 74 285 97"/>
<path stroke-width="0.1" stroke="black" d="M 341 74 404 68"/>
<path stroke-width="0.1" stroke="black" d="M 341 74 398 61"/>
<path stroke-width="0.1" stroke="black" d="M 341 74 441 173"/>
<path stroke-width="0.1" stroke="black" d="M 341 74 457 220"/>
<path stroke-width="0.1" stroke="black" d="M 341 74 417 60"/>
<path stroke-width="0.1" stroke="black" d="M 358 103 431 113"/>
<path stroke-width="0.1" stroke="black" d="M 358 103 153 120"/>
<path stroke-width="0.1" stroke="black" d="M 358 103 360 126"/>
<path stroke-width="0.1" stroke="black" d="M 358 103 285 97"/>
<path stroke-width="0.1" stroke="black" d="M 358 103 404 68"/>
<path stroke-width="0.1" stroke="black" d="M 358 103 398 61"/>
<path stroke-width="0.1" stroke="black" d="M 358 103 398 135"/>
<path stroke-width="0.1" stroke="black" d="M 358 103 441 173"/>
<path stroke-width="0.1" stroke="black" d="M 358 103 457 220"/>
<path stroke-width="0.1" stroke="black" d="M 358 103 417 60"/>
<path stroke-width="0.1" stroke="black" d="M 341 116 431 113"/>
<path stroke-width="0.1" stroke="black" d="M 341 116 360 126"/>
<path stroke-width="0.1" stroke="black" d="M 341 116 360 126"/>
<path stroke-width="0.1" stroke="black" d="M 419 76 417 60"/>
<path stroke-width="0.1" stroke="black" d="M 419 76 360 126"/>
<path stroke-width="0.1" stroke="black" d="M 419 76 431 113"/>
<path stroke-width="0.1" stroke="black" d="M 419 76 360 126"/>
<path stroke-width="0.1" stroke="black" d="M 416 83 431 113"/>
<path stroke-width="0.1" stroke="black" d="M 416 83 460 248"/>
<path stroke-width="0.1" stroke="black" d="M 416 83 360 126"/>
<path stroke-width="0.1" stroke="black" d="M 416 83 360 126"/>
<path stroke-width="0.1" stroke="black" d="M 416 83 285 97"/>
<path stroke-width="0.1" stroke="black" d="M 416 83 404 68"/>
<path stroke-width="0.1" stroke="black" d="M 416 83 398 61"/>
<path stroke-width="0.1" stroke="black" d="M 416 83 441 173"/>
<path stroke-width="0.1" stroke="black" d="M 416 83 457 220"/>
<path stroke-width="0.1" stroke="black" d="M 416 83 417 60"/>
<path stroke-width="0.1" stroke="black" d="M 417 73 431 113"/>
<path stroke-width="0.1" stroke="black" d="M 417 73 460 248"/>
<path stroke-width="0.1" stroke="black" d="M 417 73 360 126"/>
<path stroke-width="0.1" stroke="black" d="M 417 73 360 126"/>
<path stroke-width="0.1" stroke="black" d="M 417 73 285 97"/>
<path stroke-width="0.1" stroke="black" d="M 417 73 404 68"/>
<path stroke-width="0.1" stroke="black" d="M 417 73 398 61"/>
<path stroke-width="0.1" stroke="black" d="M 417 73 441 173"/>
<path stroke-width="0.1" stroke="black" d="M 417 73 457 220"/>
<path stroke-width="0.1" stroke="black" d="M 417 73 417 60"/>
<path stroke-width="0.1" stroke="black" d="M 409 54 431 113"/>
<path stroke-width="0.1" stroke="black" d="M 409 54 360 126"/>
<path stroke-width="0.1" stroke="black" d="M 409 54 360 126"/>
<path stroke-width="0.1" stroke="black" d="M 399 55 417 60"/>
<path stroke-width="0.1" stroke="black" d="M 433 113 417 60"/>
<path stroke-width="0.1" stroke="black" d="M 399 55 457 220"/>
<path stroke-width="0.1" stroke="black" d="M 399 55 398 61"/>
<path stroke-width="0.1" stroke="black" d="M 419 76 285 97"/>
<path stroke-width="0.1" stroke="black" d="M 419 76 360 126"/>
<path stroke-width="0.1" stroke="black" d="M 419 76 404 68"/>
<path stroke-width="0.1" stroke="black" d="M 419 76 450 37"/>
<path stroke-width="0.1" stroke="black" d="M 419 76 441 173"/>
<path stroke-width="0.1" stroke="black" d="M 419 76 457 220"/>
<path stroke-width="0.1" stroke="black" d="M 419 76 417 60"/>
<path stroke-width="0.1" stroke="black" d="M 369 69 431 113"/>
<path stroke-width="0.1" stroke="black" d="M 369 69 285 97"/>
<path stroke-width="0.1" stroke="black" d="M 369 69 360 126"/>
<path stroke-width="0.1" stroke="black" d="M 369 69 404 68"/>
<path stroke-width="0.1" stroke="black" d="M 369 69 398 61"/>
<path stroke-width="0.1" stroke="black" d="M 369 69 450 37"/>
<path stroke-width="0.1" stroke="black" d="M 369 69 398 135"/>
<path stroke-width="0.1" stroke="black" d="M 369 69 441 173"/>
<path stroke-width="0.1" stroke="black" d="M 369 69 457 220"/>
<path stroke-width="0.1" stroke="black" d="M 369 69 417 60"/>
<path stroke-width="0.1" stroke="black" d="M 399 55 360 126"/>
<path stroke-width="0.1" stroke="black" d="M 399 55 360 126"/>
<path stroke-width="0.1" stroke="black" d="M 399 55 431 113"/>
<path stroke-width="0.1" stroke="black" d="M 399 55 460 248"/>
<path stroke-width="0.1" stroke="black" d="M 399 55 360 126"/>
<path stroke-width="0.1" stroke="black" d="M 399 55 285 97"/>
<path stroke-width="0.1" stroke="black" d="M 399 55 441 173"/>
<path stroke-width="0.1" stroke="black" d="M 433 113 457 220"/>
<path stroke-width="0.1" stroke="black" d="M 433 113 398 61"/>
<path stroke-width="0.1" stroke="black" d="M 433 113 285 97"/>
<path stroke-width="0.1" stroke="black" d="M 129 126 285 97"/>
<path stroke-width="0.1" stroke="black" d="M 129 126 431 113"/>
<path stroke-width="0.1" stroke="black" d="M 129 126 70 156"/>
<path stroke-width="0.1" stroke="black" d="M 129 126 360 126"/>
<path stroke-width="0.1" stroke="black" d="M 129 126 360 126"/>
<path stroke-width="0.1" stroke="black" d="M 129 126 171 115"/>
<path stroke-width="0.1" stroke="black" d="M 129 126 70 156"/>
<path stroke-width="0.1" stroke="black" d="M 129 126 120 130"/>
<path stroke-width="0.1" stroke="black" d="M 129 126 153 120"/>
<path stroke-width="0.1" stroke="black" d="M 129 126 285 97"/>
<path stroke-width="0.1" stroke="black" d="M 129 126 398 135"/>
<path stroke-width="0.1" stroke="black" d="M 129 126 431 113"/>
<path stroke-width="0.1" stroke="black" d="M 129 126 70 156"/>
<path stroke-width="0.1" stroke="black" d="M 129 126 360 126"/>
<path stroke-width="0.1" stroke="black" d="M 129 126 360 126"/>
<path stroke-width="0.1" stroke="black" d="M 129 126 171 115"/>
<path stroke-width="0.1" stroke="black" d="M 129 126 70 156"/>
<path stroke-width="0.1" stroke="black" d="M 129 126 120 130"/>
<path stroke-width="0.1" stroke="black" d="M 129 126 153 120"/>
<path stroke-width="0.1" stroke="black" d="M 129 126 285 97"/>
<path stroke-width="0.1" stroke="black" d="M 129 126 398 135"/>
<path stroke-width="0.1" stroke="black" d="M 176 115 431 113"/>
<path stroke-width="0.1" stroke="black" d="M 176 115 360 126"/>
<path stroke-width="0.1" stroke="black" d="M 129 126 153 120"/>
<path stroke-width="0.1" stroke="black" d="M 176 115 70 156"/>
<path stroke-width="0.1" stroke="black" d="M 129 126 120 130"/>
<path stroke-width="0.1" stroke="black" d="M 129 126 171 115"/>
<path stroke-width="0.1" stroke="black" d="M 77 152 70 156"/>
<path stroke-width="0.1" stroke="black" d="M 77 152 360 126"/>
<path stroke-width="0.1" stroke="black" d="M 77 152 360 126"/>
<path stroke-width="0.1" stroke="black" d="M 77 152 360 126"/>
<path stroke-width="0.1" stroke="black" d="M 77 152 171 115"/>
<path stroke-width="0.1" stroke="black" d="M 77 152 70 156"/>
<path stroke-width="0.1" stroke="black" d="M 77 152 120 130"/>
<path stroke-width="0.1" stroke="black" d="M 77 152 153 120"/>
<path stroke-width="0.1" stroke="black" d="M 360 126 431 113"/>
<path stroke-width="0.1" stroke="black" d="M 360 126 70 156"/>
<path stroke-width="0.1" stroke="black" d="M 360 126 360 126"/>
<path stroke-width="0.1" stroke="black" d="M 360 126 360 126"/>
<path stroke-width="0.1" stroke="black" d="M 360 126 360 126"/>
<path stroke-width="0.1" stroke="black" d="M 360 126 360 126"/>
<path stroke-width="0.1" stroke="black" d="M 360 126 171 115"/>
<path stroke-width="0.1" stroke="black" d="M 360 126 70 156"/>
<path stroke-width="0.1" stroke="black" d="M 360 126 120 130"/>
<path stroke-width="0.1" stroke="black" d="M 360 126 153 120"/>
<path stroke-width="0.1" stroke="black" d="M 129 126 360 126"/>
<path stroke-width="0.1" stroke="black" d="M 129 126 431 113"/>
<path stroke-width="0.1" stroke="black" d="M 129 126 360 126"/>
<path stroke-width="0.1" stroke="black" d="M 129 126 70 156"/>
<path stroke-width="0.1" stroke="black" d="M 129 126 360 126"/>
<path stroke-width="0.1" stroke="black" d="M 129 126 70 156"/>
<path stroke-width="0.1" stroke="black" d="M 409 54 285 97"/>
<path stroke-width="0.1" stroke="black" d="M 176 115 171 115"/>
<path stroke-width="0.1" stroke="black" d="M 176 115 153 120"/>
<path stroke-width="0.1" stroke="black" d="M 215 107 360 126"/>
<path stroke-width="0.1" stroke="black" d="M 215 107 171 115"/>
<path stroke-width="0.1" stroke="black" d="M 215 107 120 130"/>
<path stroke-width="0.1" stroke="black" d="M 215 107 153 120"/>
<path stroke-width="0.1" stroke="black" d="M 215 107 285 97"/>
<path stroke-width="0.1" stroke="black" d="M 215 107 455 24"/>
<path stroke-width="0.1" stroke="black" d="M 215 107 398 135"/>
<path stroke-width="0.1" stroke="black" d="M 433 113 431 113"/>
<path stroke-width="0.1" stroke="black" d="M 433 113 360 126"/>
<path stroke-width="0.1" stroke="black" d="M 433 113 360 126"/>
<path stroke-width="0.1" stroke="black" d="M 433 113 460 248"/>
<path stroke-width="0.1" stroke="black" d="M 433 113 360 126"/>
<path stroke-width="0.1" stroke="black" d="M 433 113 360 126"/>
<path stroke-width="0.1" stroke="black" d="M 433 113 285 97"/>
<path stroke-width="0.1" stroke="black" d="M 433 113 398 61"/>
<path stroke-width="0.1" stroke="black" d="M 433 113 457 220"/>
<path stroke-width="0.1" stroke="black" d="M 433 113 417 60"/>
<path stroke-width="0.1" stroke="black" d="M 433 113 431 113"/>
<path stroke-width="0.1" stroke="black" d="M 433 113 360 126"/>
<path stroke-width="0.1" stroke="black" d="M 433 113 360 126"/>
<path stroke-width="0.1" stroke="black" d="M 433 113 460 248"/>
<path stroke-width="0.1" stroke="black" d="M 433 113 360 126"/>
<path stroke-width="0.1" stroke="black" d="M 433 113 360 126"/>
<path stroke-width="0.1" stroke="black" d="M 215 107 360 126"/>
<path stroke-width="0.1" stroke="black" d="M 176 115 120 130"/>
<path stroke-width="0.1" stroke="black" d="M 215 107 70 156"/>
<path stroke-width="0.1" stroke="black" d="M 215 107 398 135"/>
<path stroke-width="0.1" stroke="black" d="M 176 115 360 126"/>
<path stroke-width="0.1" stroke="black" d="M 176 115 285 97"/>
<path stroke-width="0.1" stroke="black" d="M 176 115 455 24"/>
<path stroke-width="0.1" stroke="black" d="M 176 115 398 135"/>
<path stroke-width="0.1" stroke="black" d="M 129 126 431 113"/>
<path stroke-width="0.1" stroke="black" d="M 129 126 70 156"/>
<path stroke-width="0.1" stroke="black" d="M 129 126 360 126"/>
<path stroke-width="0.1" stroke="black" d="M 129 126 171 115"/>
<path stroke-width="0.1" stroke="black" d="M 129 126 70 156"/>
<path stroke-width="0.1" stroke="black" d="M 129 126 120 130"/>
<path stroke-width="0.1" stroke="black" d="M 129 126 153 120"/>
<path stroke-width="0.1" stroke="black" d="M 129 126 285 97"/>
<path stroke-width="0.1" stroke="black" d="M 129 126 455 24"/>
<path stroke-width="0.1" stroke="black" d="M 129 126 398 135"/>
<path stroke-width="0.1" stroke="black" d="M 215 107 431 113"/>
<path stroke-width="0.1" stroke="black" d="M 215 107 70 156"/>
<path stroke-width="0.1" stroke="black" d="M 215 107 360 126"/>
<path stroke-width="0.1" stroke="black" d="M 215 107 171 115"/>
<path stroke-width="0.1" stroke="black" d="M 215 107 70 156"/>
<path stroke-width="0.1" stroke="black" d="M 215 107 120 130"/>
<path stroke-width="0.1" stroke="black" d="M 215 107 153 120"/>
<path stroke-width="0.1" stroke="black" d="M 215 107 285 97"/>
<path stroke-width="0.1" stroke="black" d="M 215 107 455 24"/>
<path stroke-width="0.1" stroke="black" d="M 215 107 431 113"/>
<path stroke-width="0.1" stroke="black" d="M 409 54 360 126"/>
<path stroke-width="0.1" stroke="black" d="M 409 54 404 68"/>
<path stroke-width="0.1" stroke="black" d="M 409 54 398 61"/>
<path stroke-width="0.1" stroke="black" d="M 460 233 360 126"/>
<path stroke-width="0.1" stroke="black" d="M 460 233 360 126"/>
<path stroke-width="0.1" stroke="black" d="M 460 233 285 97"/>
<path stroke-width="0.1" stroke="black" d="M 460 233 398 61"/>
<path stroke-width="0.1" stroke="black" d="M 460 233 441 173"/>
<path stroke-width="0.1" stroke="black" d="M 460 233 457 220"/>
<path stroke-width="0.1" stroke="black" d="M 460 233 417 60"/>
<path stroke-width="0.1" stroke="black" d="M 460 233 467 297"/>
<path stroke-width="0.1" stroke="black" d="M 460 233 431 113"/>
<path stroke-width="0.1" stroke="black" d="M 460 233 460 248"/>
<path stroke-width="0.1" stroke="black" d="M 460 233 360 126"/>
<path stroke-width="0.1" stroke="black" d="M 460 233 360 126"/>
<path stroke-width="0.1" stroke="black" d="M 460 233 360 126"/>
<path stroke-width="0.1" stroke="black" d="M 460 233 285 97"/>
<path stroke-width="0.1" stroke="black" d="M 460 233 398 61"/>
<path stroke-width="0.1" stroke="black" d="M 460 233 457 220"/>
<path stroke-width="0.1" stroke="black" d="M 460 233 417 60"/>
<path stroke-width="0.1" stroke="black" d="M 460 233 467 297"/>
<path stroke-width="0.1" stroke="black" d="M 418 53 360 126"/>
<path stroke-width="0.1" stroke="black" d="M 418 53 360 126"/>
<path stroke-width="0.1" stroke="black" d="M 418 53 360 126"/>
<path stroke-width="0.1" stroke="black" d="M 418 53 431 113"/>
<path stroke-width="0.1" stroke="black" d="M 418 53 360 126"/>
<path stroke-width="0.1" stroke="black" d="M 460 233 460 248"/>
<path stroke-width="0.1" stroke="black" d="M 418 53 404 68"/>
<path stroke-width="0.1" stroke="black" d="M 460 233 431 113"/>
<path stroke-width="0.1" stroke="black" d="M 447 173 417 60"/>
<path stroke-width="0.1" stroke="black" d="M 446 176 398 61"/>
<path stroke-width="0.1" stroke="black" d="M 446 176 398 135"/>
<path stroke-width="0.1" stroke="black" d="M 446 176 441 173"/>
<path stroke-width="0.1" stroke="black" d="M 446 176 457 220"/>
<path stroke-width="0.1" stroke="black" d="M 446 176 417 60"/>
<path stroke-width="0.1" stroke="black" d="M 460 233 360 126"/>
<path stroke-width="0.1" stroke="black" d="M 460 233 360 126"/>
<path stroke-width="0.1" stroke="black" d="M 460 233 431 113"/>
<path stroke-width="0.1" stroke="black" d="M 460 233 460 248"/>
<path stroke-width="0.1" stroke="black" d="M 460 233 360 126"/>
<path stroke-width="0.1" stroke="black" d="M 460 233 285 97"/>
<path stroke-width="0.1" stroke="black" d="M 460 233 398 61"/>
<path stroke-width="0.1" stroke="black" d="M 460 233 457 220"/>
<path stroke-width="0.1" stroke="black" d="M 460 233 417 60"/>
<path stroke-width="0.1" stroke="black" d="M 460 233 467 297"/>
<path stroke-width="0.1" stroke="black" d="M 447 173 360 126"/>
<path stroke-width="0.1" stroke="black" d="M 447 173 431 113"/>
<path stroke-width="0.1" stroke="black" d="M 447 173 360 126"/>
<path stroke-width="0.1" stroke="black" d="M 447 173 360 126"/>
<path stroke-width="0.1" stroke="black" d="M 447 173 285 97"/>
<path stroke-width="0.1" stroke="black" d="M 447 173 398 61"/>
<path stroke-width="0.1" stroke="black" d="M 447 173 398 135"/>
<path stroke-width="0.1" stroke="black" d="M 447 173 457 220"/>
<path stroke-width="0.1" stroke="black" d="M 447 173 467 297"/>
<path stroke-width="0.1" stroke="black" d="M 446 176 404 68"/>
<path stroke-width="0.1" stroke="black" d="M 418 53 450 37"/>
<path stroke-width="0.1" stroke="black" d="M 418 53 457 220"/>
<path stroke-width="0.1" stroke="black" d="M 470 320 460 248"/>
<path stroke-width="0.1" stroke="black" d="M 470 320 360 126"/>
<path stroke-width="0.1" stroke="black" d="M 470 320 457 220"/>
<path stroke-width="0.1" stroke="black" d="M 470 320 467 297"/>
<path stroke-width="0.1" stroke="black" d="M 447 173 360 126"/>
<path stroke-width="0.1" stroke="black" d="M 447 173 360 126"/>
<path stroke-width="0.1" stroke="black" d="M 447 173 360 126"/>
<path stroke-width="0.1" stroke="black" d="M 447 173 431 113"/>
<path stroke-width="0.1" stroke="black" d="M 447 173 460 248"/>
<path stroke-width="0.1" stroke="black" d="M 447 173 360 126"/>
<path stroke-width="0.1" stroke="black" d="M 447 173 360 126"/>
<path stroke-width="0.1" stroke="black" d="M 447 173 457 220"/>
<path stroke-width="0.1" stroke="black" d="M 447 173 417 60"/>
<path stroke-width="0.1" stroke="black" d="M 447 173 467 297"/>
<path stroke-width="0.1" stroke="black" d="M 457 233 431 113"/>
<path stroke-width="0.1" stroke="black" d="M 457 233 360 126"/>
<path stroke-width="0.1" stroke="black" d="M 457 233 360 126"/>
<path stroke-width="0.1" stroke="black" d="M 457 233 460 248"/>
<path stroke-width="0.1" stroke="black" d="M 457 233 360 126"/>
<path stroke-width="0.1" stroke="black" d="M 457 233 360 126"/>
<path stroke-width="0.1" stroke="black" d="M 457 233 360 126"/>
<path stroke-width="0.1" stroke="black" d="M 457 233 457 220"/>
<path stroke-width="0.1" stroke="black" d="M 457 233 417 60"/>
<path stroke-width="0.1" stroke="black" d="M 470 320 360 126"/>
<path stroke-width="0.1" stroke="black" d="M 418 53 398 135"/>
<path stroke-width="0.1" stroke="black" d="M 470 320 431 113"/>
<path stroke-width="0.1" stroke="black" d="M 470 320 360 126"/>
<path stroke-width="0.1" stroke="black" d="M 418 53 417 60"/>
<path stroke-width="0.1" stroke="black" d="M 426 83 360 126"/>
<path stroke-width="0.1" stroke="black" d="M 426 83 360 126"/>
<path stroke-width="0.1" stroke="black" d="M 426 83 360 126"/>
<path stroke-width="0.1" stroke="black" d="M 426 83 431 113"/>
<path stroke-width="0.1" stroke="black" d="M 426 83 285 97"/>
<path stroke-width="0.1" stroke="black" d="M 426 83 404 68"/>
<path stroke-width="0.1" stroke="black" d="M 426 83 398 61"/>
<path stroke-width="0.1" stroke="black" d="M 426 83 450 37"/>
<path stroke-width="0.1" stroke="black" d="M 426 83 457 220"/>
<path stroke-width="0.1" stroke="black" d="M 426 83 417 60"/>
<path stroke-width="0.1" stroke="black" d="M 418 53 360 126"/>
<path stroke-width="0.1" stroke="black" d="M 418 53 360 126"/>
<path stroke-width="0.1" stroke="black" d="M 418 53 431 113"/>
<path stroke-width="0.1" stroke="black" d="M 418 53 285 97"/>
<path stroke-width="0.1" stroke="black" d="M 418 53 360 126"/>
<path stroke-width="0.1" stroke="black" d="M 418 53 404 68"/>
<path stroke-width="0.1" stroke="black" d="M 418 53 398 61"/>
<path stroke-width="0.1" stroke="black" d="M 418 53 450 37"/>
<path stroke-width="0.1" stroke="black" d="M 418 53 457 220"/>
<path stroke-width="0.1" stroke="black" d="M 418 53 417 60"/>
<path stroke-width="0.1" stroke="black" d="M 470 320 360 126"/>
<path stroke-width="0.1" stroke="black" d="M 470 320 360 126"/>
<path stroke-width="0.1" stroke="black" d="M 470 320 360 126"/>
<path stroke-width="0.1" stroke="black" d="M 77 152 360 126"/>
<path stroke-width="0.1" stroke="black" d="M 446 176 360 126"/>
<path stroke-width="0.1" stroke="black" d="M 446 176 360 126"/>
<path stroke-width="0.1" stroke="black" d="M 435 64 455 24"/>
<path stroke-width="0.1" stroke="black" d="M 435 64 404 68"/>
<path stroke-width="0.1" stroke="black" d="M 435 64 450 37"/>
<path stroke-width="0.1" stroke="black" d="M 435 64 398 135"/>
<path stroke-width="0.1" stroke="black" d="M 435 64 457 220"/>
<path stroke-width="0.1" stroke="black" d="M 435 64 417 60"/>
<path stroke-width="0.1" stroke="black" d="M 456 20 431 113"/>
<path stroke-width="0.1" stroke="black" d="M 456 20 360 126"/>
<path stroke-width="0.1" stroke="black" d="M 456 20 171 115"/>
<path stroke-width="0.1" stroke="black" d="M 456 20 153 120"/>
<path stroke-width="0.1" stroke="black" d="M 456 20 285 97"/>
<path stroke-width="0.1" stroke="black" d="M 456 20 455 24"/>
<path stroke-width="0.1" stroke="black" d="M 456 20 404 68"/>
<path stroke-width="0.1" stroke="black" d="M 456 20 450 37"/>
<path stroke-width="0.1" stroke="black" d="M 456 20 398 135"/>
<path stroke-width="0.1" stroke="black" d="M 456 20 417 60"/>
<path stroke-width="0.1" stroke="black" d="M 399 138 360 126"/>
<path stroke-width="0.1" stroke="black" d="M 399 138 431 113"/>
<path stroke-width="0.1" stroke="black" d="M 399 138 360 126"/>
<path stroke-width="0.1" stroke="black" d="M 399 138 285 97"/>
<path stroke-width="0.1" stroke="black" d="M 399 138 360 126"/>
<path stroke-width="0.1" stroke="black" d="M 399 138 404 68"/>
<path stroke-width="0.1" stroke="black" d="M 399 138 398 135"/>
<path stroke-width="0.1" stroke="black" d="M 435 64 285 97"/>
<path stroke-width="0.1" stroke="black" d="M 399 138 441 173"/>
<path stroke-width="0.1" stroke="black" d="M 435 64 153 120"/>
<path stroke-width="0.1" stroke="black" d="M 435 64 431 113"/>
<path stroke-width="0.1" stroke="black" d="M 409 54 441 173"/>
<path stroke-width="0.1" stroke="black" d="M 409 54 457 220"/>
<path stroke-width="0.1" stroke="black" d="M 409 54 417 60"/>
<path stroke-width="0.1" stroke="black" d="M 453 27 360 126"/>
<path stroke-width="0.1" stroke="black" d="M 453 27 360 126"/>
<path stroke-width="0.1" stroke="black" d="M 453 27 360 126"/>
<path stroke-width="0.1" stroke="black" d="M 453 27 431 113"/>
<path stroke-width="0.1" stroke="black" d="M 453 27 360 126"/>
<path stroke-width="0.1" stroke="black" d="M 453 27 455 24"/>
<path stroke-width="0.1" stroke="black" d="M 453 27 404 68"/>
<path stroke-width="0.1" stroke="black" d="M 453 27 450 37"/>
<path stroke-width="0.1" stroke="black" d="M 453 27 457 220"/>
<path stroke-width="0.1" stroke="black" d="M 453 27 417 60"/>
<path stroke-width="0.1" stroke="black" d="M 444 69 360 126"/>
<path stroke-width="0.1" stroke="black" d="M 444 69 431 113"/>
<path stroke-width="0.1" stroke="black" d="M 444 69 285 97"/>
<path stroke-width="0.1" stroke="black" d="M 444 69 360 126"/>
<path stroke-width="0.1" stroke="black" d="M 444 69 455 24"/>
<path stroke-width="0.1" stroke="black" d="M 444 69 404 68"/>
<path stroke-width="0.1" stroke="black" d="M 444 69 450 37"/>
<path stroke-width="0.1" stroke="black" d="M 444 69 398 135"/>
<path stroke-width="0.1" stroke="black" d="M 444 69 457 220"/>
<path stroke-width="0.1" stroke="black" d="M 444 69 417 60"/>
<path stroke-width="0.1" stroke="black" d="M 435 64 171 115"/>
<path stroke-width="0.1" stroke="black" d="M 446 176 285 97"/>
<path stroke-width="0.1" stroke="black" d="M 399 138 457 220"/>
<path stroke-width="0.1" stroke="black" d="M 417 125 431 113"/>
<path stroke-width="0.1" stroke="black" d="M 399 138 457 220"/>
<path stroke-width="0.1" stroke="black" d="M 399 138 417 60"/>
<path stroke-width="0.1" stroke="black" d="M 443 180 360 126"/>
<path stroke-width="0.1" stroke="black" d="M 443 180 431 113"/>
<path stroke-width="0.1" stroke="black" d="M 443 180 285 97"/>
<path stroke-width="0.1" stroke="black" d="M 443 180 360 126"/>
<path stroke-width="0.1" stroke="black" d="M 443 180 404 68"/>
<path stroke-width="0.1" stroke="black" d="M 443 180 398 61"/>
<path stroke-width="0.1" stroke="black" d="M 443 180 398 135"/>
<path stroke-width="0.1" stroke="black" d="M 443 180 441 173"/>
<path stroke-width="0.1" stroke="black" d="M 443 180 457 220"/>
<path stroke-width="0.1" stroke="black" d="M 443 180 417 60"/>
<path stroke-width="0.1" stroke="black" d="M 426 144 431 113"/>
<path stroke-width="0.1" stroke="black" d="M 426 144 360 126"/>
<path stroke-width="0.1" stroke="black" d="M 426 144 285 97"/>
<path stroke-width="0.1" stroke="black" d="M 426 144 360 126"/>
<path stroke-width="0.1" stroke="black" d="M 426 144 404 68"/>
<path stroke-width="0.1" stroke="black" d="M 426 144 398 61"/>
<path stroke-width="0.1" stroke="black" d="M 426 144 398 135"/>
<path stroke-width="0.1" stroke="black" d="M 426 144 441 173"/>
<path stroke-width="0.1" stroke="black" d="M 426 144 457 220"/>
<path stroke-width="0.1" stroke="black" d="M 426 144 417 60"/>
<path stroke-width="0.1" stroke="black" d="M 446 176 431 113"/>
<path stroke-width="0.1" stroke="black" d="M 399 138 441 173"/>
<path stroke-width="0.1" stroke="black" d="M 399 138 417 60"/>
<path stroke-width="0.1" stroke="black" d="M 399 138 398 135"/>
<path stroke-width="0.1" stroke="black" d="M 399 138 455 24"/>
<path stroke-width="0.1" stroke="black" d="M 417 125 360 126"/>
<path stroke-width="0.1" stroke="black" d="M 417 125 360 126"/>
<path stroke-width="0.1" stroke="black" d="M 417 125 285 97"/>
<path stroke-width="0.1" stroke="black" d="M 417 125 360 126"/>
<path stroke-width="0.1" stroke="black" d="M 417 125 404 68"/>
<path stroke-width="0.1" stroke="black" d="M 417 125 398 135"/>
<path stroke-width="0.1" stroke="black" d="M 417 125 441 173"/>
<path stroke-width="0.1" stroke="black" d="M 417 125 457 220"/>
<path stroke-width="0.1" stroke="black" d="M 417 125 417 60"/>
<path stroke-width="0.1" stroke="black" d="M 399 138 431 113"/>
<path stroke-width="0.1" stroke="black" d="M 399 138 360 126"/>
<path stroke-width="0.1" stroke="black" d="M 399 138 360 126"/>
<path stroke-width="0.1" stroke="black" d="M 399 138 285 97"/>
<path stroke-width="0.1" stroke="black" d="M 399 138 360 126"/>
<path stroke-width="0.1" stroke="black" d="M 399 138 404 68"/>
<path stroke-width="0.1" stroke="black" d="M 399 138 398 135"/>
<path stroke-width="0.1" stroke="black" d="M 399 138 441 173"/>
<path stroke-width="0.1" stroke="black" d="M 399 138 457 220"/>
<path stroke-width="0.1" stroke="black" d="M 399 138 417 60"/>
<path stroke-width="0.1" stroke="black" d="M 399 138 431 113"/>
<path stroke-width="0.1" stroke="black" d="M 399 138 360 126"/>
<path stroke-width="0.1" stroke="black" d="M 399 138 285 97"/>
<path stroke-width="0.1" stroke="black" d="M 399 138 360 126"/>
<path stroke-width="0.1" stroke="black" d="M 399 138 404 68"/>
<path stroke-width="0.1" stroke="black" d="M 77 152 431 113"/>
<circle cx="457" cy="233" r="7.0" style="fill:blue;stroke:black;stroke-width:1.0"/>
<circle cx="447" cy="173" r="7.0" style="fill:blue;stroke:black;stroke-width:1.0"/>
<circle cx="470" cy="320" r="7.0" style="fill:blue;stroke:black;stroke-width:1.0"/>
<circle cx="418" cy="53" r="7.0" style="fill:blue;stroke:black;stroke-width:1.0"/>
<circle cx="426" cy="83" r="7.0" style="fill:blue;stroke:black;stroke-width:1.0"/>
<circle cx="418" cy="53" r="7.0" style="fill:blue;stroke:black;stroke-width:1.0"/>
<circle cx="460" cy="233" r="7.0" style="fill:blue;stroke:black;stroke-width:1.0"/>
<circle cx="460" cy="233" r="7.0" style="fill:blue;stroke:black;stroke-width:1.0"/>
<circle cx="447" cy="173" r="7.0" style="fill:blue;stroke:black;stroke-width:1.0"/>
<circle cx="460" cy="233" r="7.0" style="fill:blue;stroke:black;stroke-width:1.0"/>
<circle cx="446" cy="176" r="7.0" style="fill:blue;stroke:black;stroke-width:1.0"/>
<circle cx="426" cy="144" r="7.0" style="fill:blue;stroke:black;stroke-width:1.0"/>
<circle cx="443" cy="180" r="7.0" style="fill:blue;stroke:black;stroke-width:1.0"/>
<circle cx="399" cy="138" r="7.0" style="fill:blue;stroke:black;stroke-width:1.0"/>
<circle cx="399" cy="138" r="7.0" style="fill:blue;stroke:black;stroke-width:1.0"/>
<circle cx="417" cy="125" r="7.0" style="fill:blue;stroke:black;stroke-width:1.0"/>
<circle cx="399" cy="138" r="7.0" style="fill:blue;stroke:black;stroke-width:1.0"/>
<circle cx="456" cy="20" r="7.0" style="fill:blue;stroke:black;stroke-width:1.0"/>
<circle cx="435" cy="64" r="7.0" style="fill:blue;stroke:black;stroke-width:1.0"/>
<circle cx="444" cy="69" r="7.0" style="fill:blue;stroke:black;stroke-width:1.0"/>
<circle cx="453" cy="27" r="7.0" style="fill:blue;stroke:black;stroke-width:1.0"/>
<circle cx="409" cy="54" r="7.0" style="fill:blue;stroke:black;stroke-width:1.0"/>
<circle cx="417" cy="73" r="7.0" style="fill:blue;stroke:black;stroke-width:1.0"/>
<circle cx="416" cy="83" r="7.0" style="fill:blue;stroke:black;stroke-width:1.0"/>
<circle cx="399" cy="55" r="7.0" style="fill:blue;stroke:black;stroke-width:1.0"/>
<circle cx="369" cy="69" r="7.0" style="fill:blue;stroke:black;stroke-width:1.0"/>
<circle cx="419" cy="76" r="7.0" style="fill:blue;stroke:black;stroke-width:1.0"/>
<circle cx="419" cy="76" r="7.0" style="fill:blue;stroke:black;stroke-width:1.0"/>
<circle cx="449" cy="50" r="7.0" style="fill:blue;stroke:black;stroke-width:1.0"/>
<circle cx="341" cy="116" r="7.0" style="fill:blue;stroke:black;stroke-width:1.0"/>
<circle cx="358" cy="103" r="7.0" style="fill:blue;stroke:black;stroke-width:1.0"/>
<circle cx="341" cy="74" r="7.0" style="fill:blue;stroke:black;stroke-width:1.0"/>
<circle cx="433" cy="113" r="7.0" style="fill:blue;stroke:black;stroke-width:1.0"/>
<circle cx="433" cy="113" r="7.0" style="fill:blue;stroke:black;stroke-width:1.0"/>
<circle cx="215" cy="107" r="7.0" style="fill:blue;stroke:black;stroke-width:1.0"/>
<circle cx="215" cy="107" r="7.0" style="fill:blue;stroke:black;stroke-width:1.0"/>
<circle cx="129" cy="126" r="7.0" style="fill:blue;stroke:black;stroke-width:1.0"/>
<circle cx="176" cy="115" r="7.0" style="fill:blue;stroke:black;stroke-width:1.0"/>
<circle cx="129" cy="126" r="7.0" style="fill:blue;stroke:black;stroke-width:1.0"/>
<circle cx="129" cy="126" r="7.0" style="fill:blue;stroke:black;stroke-width:1.0"/>
<circle cx="129" cy="126" r="7.0" style="fill:blue;stroke:black;stroke-width:1.0"/>
<circle cx="360" cy="126" r="7.0" style="fill:blue;stroke:black;stroke-width:1.0"/>
<circle cx="77" cy="152" r="7.0" style="fill:blue;stroke:black;stroke-width:1.0"/>
<circle cx="467" cy="297" r="7.0" style="fill:red;stroke:black;stroke-width:1.0"/>
<circle cx="417" cy="60" r="7.0" style="fill:red;stroke:black;stroke-width:1.0"/>
<circle cx="457" cy="220" r="7.0" style="fill:red;stroke:black;stroke-width:1.0"/>
<circle cx="441" cy="173" r="7.0" style="fill:red;stroke:black;stroke-width:1.0"/>
<circle cx="398" cy="135" r="7.0" style="fill:red;stroke:black;stroke-width:1.0"/>
<circle cx="450" cy="37" r="7.0" style="fill:red;stroke:black;stroke-width:1.0"/>
<circle cx="398" cy="61" r="7.0" style="fill:red;stroke:black;stroke-width:1.0"/>
<circle cx="404" cy="68" r="7.0" style="fill:red;stroke:black;stroke-width:1.0"/>
<circle cx="455" cy="24" r="7.0" style="fill:red;stroke:black;stroke-width:1.0"/>
<circle cx="360" cy="126" r="7.0" style="fill:red;stroke:black;stroke-width:1.0"/>
<circle cx="285" cy="97" r="7.0" style="fill:red;stroke:black;stroke-width:1.0"/>
<circle cx="360" cy="126" r="7.0" style="fill:red;stroke:black;stroke-width:1.0"/>
<circle cx="360" cy="126" r="7.0" style="fill:red;stroke:black;stroke-width:1.0"/>
<circle cx="153" cy="120" r="7.0" style="fill:red;stroke:black;stroke-width:1.0"/>
<circle cx="120" cy="130" r="7.0" style="fill:red;stroke:black;stroke-width:1.0"/>
<circle cx="70" cy="156" r="7.0" style="fill:red;stroke:black;stroke-width:1.0"/>
<circle cx="171" cy="115" r="7.0" style="fill:red;stroke:black;stroke-width:1.0"/>
<circle cx="360" cy="126" r="7.0" style="fill:red;stroke:black;stroke-width:1.0"/>
<circle cx="360" cy="126" r="7.0" style="fill:red;stroke:black;stroke-width:1.0"/>
<circle cx="360" cy="126" r="7.0" style="fill:red;stroke:black;stroke-width:1.0"/>
<circle cx="360" cy="126" r="7.0" style="fill:red;stroke:black;stroke-width:1.0"/>
<circle cx="360" cy="126" r="7.0" style="fill:red;stroke:black;stroke-width:1.0"/>
<circle cx="360" cy="126" r="7.0" style="fill:red;stroke:black;stroke-width:1.0"/>
<circle cx="360" cy="126" r="7.0" style="fill:red;stroke:black;stroke-width:1.0"/>
<circle cx="360" cy="126" r="7.0" style="fill:red;stroke:black;stroke-width:1.0"/>
<circle cx="360" cy="126" r="7.0" style="fill:red;stroke:black;stroke-width:1.0"/>
<circle cx="360" cy="126" r="7.0" style="fill:red;stroke:black;stroke-width:1.0"/>
<circle cx="360" cy="126" r="7.0" style="fill:red;stroke:black;stroke-width:1.0"/>
<circle cx="360" cy="126" r="7.0" style="fill:red;stroke:black;stroke-width:1.0"/>
<circle cx="360" cy="126" r="7.0" style="fill:red;stroke:black;stroke-width:1.0"/>
<circle cx="360" cy="126" r="7.0" style="fill:red;stroke:black;stroke-width:1.0"/>
<circle cx="360" cy="126" r="7.0" style="fill:red;stroke:black;stroke-width:1.0"/>
<circle cx="460" cy="248" r="7.0" style="fill:red;stroke:black;stroke-width:1.0"/>
<circle cx="360" cy="126" r="7.0" style="fill:red;stroke:black;stroke-width:1.0"/>
<circle cx="360" cy="126" r="7.0" style="fill:red;stroke:black;stroke-width:1.0"/>
<circle cx="360" cy="126" r="7.0" style="fill:red;stroke:black;stroke-width:1.0"/>
<circle cx="360" cy="126" r="7.0" style="fill:red;stroke:black;stroke-width:1.0"/>
<circle cx="360" cy="126" r="7.0" style="fill:red;stroke:black;stroke-width:1.0"/>
<circle cx="360" cy="126" r="7.0" style="fill:red;stroke:black;stroke-width:1.0"/>
<circle cx="360" cy="126" r="7.0" style="fill:red;stroke:black;stroke-width:1.0"/>
<circle cx="70" cy="156" r="7.0" style="fill:red;stroke:black;stroke-width:1.0"/>
<circle cx="360" cy="126" r="7.0" style="fill:red;stroke:black;stroke-width:1.0"/>
<circle cx="360" cy="126" r="7.0" style="fill:red;stroke:black;stroke-width:1.0"/>
<circle cx="360" cy="126" r="7.0" style="fill:red;stroke:black;stroke-width:1.0"/>
<circle cx="360" cy="126" r="7.0" style="fill:red;stroke:black;stroke-width:1.0"/>
<circle cx="360" cy="126" r="7.0" style="fill:red;stroke:black;stroke-width:1.0"/>
<circle cx="360" cy="126" r="7.0" style="fill:red;stroke:black;stroke-width:1.0"/>
<circle cx="360" cy="126" r="7.0" style="fill:red;stroke:black;stroke-width:1.0"/>
<circle cx="360" cy="126" r="7.0" style="fill:red;stroke:black;stroke-width:1.0"/>
<circle cx="360" cy="126" r="7.0" style="fill:red;stroke:black;stroke-width:1.0"/>
<circle cx="360" cy="126" r="7.0" style="fill:red;stroke:black;stroke-width:1.0"/>
<circle cx="360" cy="126" r="7.0" style="fill:red;stroke:black;stroke-width:1.0"/>
<circle cx="360" cy="126" r="7.0" style="fill:red;stroke:black;stroke-width:1.0"/>
<circle cx="360" cy="126" r="7.0" style="fill:red;stroke:black;stroke-width:1.0"/>
<circle cx="360" cy="126" r="7.0" style="fill:red;stroke:black;stroke-width:1.0"/>
<circle cx="360" cy="126" r="7.0" style="fill:red;stroke:black;stroke-width:1.0"/>
<circle cx="360" cy="126" r="7.0" style="fill:red;stroke:black;stroke-width:1.0"/>
<circle cx="360" cy="126" r="7.0" style="fill:red;stroke:black;stroke-width:1.0"/>
<circle cx="360" cy="126" r="7.0" style="fill:red;stroke:black;stroke-width:1.0"/>
<circle cx="360" cy="126" r="7.0" style="fill:red;stroke:black;stroke-width:1.0"/>
<circle cx="360" cy="126" r="7.0" style="fill:red;stroke:black;stroke-width:1.0"/>
<circle cx="360" cy="126" r="7.0" style="fill:red;stroke:black;stroke-width:1.0"/>
<circle cx="360" cy="126" r="7.0" style="fill:red;stroke:black;stroke-width:1.0"/>
<circle cx="360" cy="126" r="7.0" style="fill:red;stroke:black;stroke-width:1.0"/>
<circle cx="360" cy="126" r="7.0" style="fill:red;stroke:black;stroke-width:1.0"/>
<circle cx="360" cy="126" r="7.0" style="fill:red;stroke:black;stroke-width:1.0"/>
<circle cx="360" cy="126" r="7.0" style="fill:red;stroke:black;stroke-width:1.0"/>
<circle cx="360" cy="126" r="7.0" style="fill:red;stroke:black;stroke-width:1.0"/>
<circle cx="360" cy="126" r="7.0" style="fill:red;stroke:black;stroke-width:1.0"/>
<circle cx="360" cy="126" r="7.0" style="fill:red;stroke:black;stroke-width:1.0"/>
<circle cx="360" cy="126" r="7.0" style="fill:red;stroke:black;stroke-width:1.0"/>
<circle cx="360" cy="126" r="7.0" style="fill:red;stroke:black;stroke-width:1.0"/>
<circle cx="360" cy="126" r="7.0" style="fill:red;stroke:black;stroke-width:1.0"/>
<circle cx="360" cy="126" r="7.0" style="fill:red;stroke:black;stroke-width:1.0"/>
<circle cx="360" cy="126" r="7.0" style="fill:red;stroke:black;stroke-width:1.0"/>
<circle cx="360" cy="126" r="7.0" style="fill:red;stroke:black;stroke-width:1.0"/>
<circle cx="431" cy="113" r="7.0" style="fill:red;stroke:black;stroke-width:1.0"/>
<circle cx="360" cy="126" r="7.0" style="fill:red;stroke:black;stroke-width:1.0"/>
<circle cx="360" cy="126" r="7.0" style="fill:red;stroke:black;stroke-width:1.0"/>
<circle cx="360" cy="126" r="7.0" style="fill:red;stroke:black;stroke-width:1.0"/>
<circle cx="360" cy="126" r="7.0" style="fill:red;stroke:black;stroke-width:1.0"/>
<circle cx="360" cy="126" r="7.0" style="fill:red;stroke:black;stroke-width:1.0"/>
<circle cx="360" cy="126" r="7.0" style="fill:red;stroke:black;stroke-width:1.0"/>
<circle cx="360" cy="126" r="7.0" style="fill:red;stroke:black;stroke-width:1.0"/>
<circle cx="360" cy="126" r="7.0" style="fill:red;stroke:black;stroke-width:1.0"/>
<circle cx="360" cy="126" r="7.0" style="fill:red;stroke:black;stroke-width:1.0"/>
<circle cx="360" cy="126" r="7.0" style="fill:red;stroke:black;stroke-width:1.0"/>
<circle cx="360" cy="126" r="7.0" style="fill:red;stroke:black;stroke-width:1.0"/>
<circle cx="360" cy="126" r="7.0" style="fill:red;stroke:black;stroke-width:1.0"/>
<circle cx="360" cy="126" r="7.0" style="fill:red;stroke:black;stroke-width:1.0"/>
<circle cx="360" cy="126" r="7.0" style="fill:red;stroke:black;stroke-width:1.0"/>
<circle cx="360" cy="126" r="7.0" style="fill:red;stroke:black;stroke-width:1.0"/>
<circle cx="360" cy="126" r="7.0" style="fill:red;stroke:black;stroke-width:1.0"/>
<circle cx="360" cy="126" r="7.0" style="fill:red;stroke:black;stroke-width:1.0"/>
<circle cx="360" cy="126" r="7.0" style="fill:red;stroke:black;stroke-width:1.0"/>
<circle cx="360" cy="126" r="7.0" style="fill:red;stroke:black;stroke-width:1.0"/>
<circle cx="360" cy="126" r="7.0" style="fill:red;stroke:black;stroke-width:1.0"/>
<circle cx="360" cy="126" r="7.0" style="fill:red;stroke:black;stroke-width:1.0"/>
<circle cx="360" cy="126" r="7.0" style="fill:red;stroke:black;stroke-width:1.0"/>
<circle cx="360" cy="126" r="7.0" style="fill:red;stroke:black;stroke-width:1.0"/>
<circle cx="360" cy="126" r="7.0" style="fill:red;stroke:black;stroke-width:1.0"/>
<text text-anchor="end" x="447" y="233" font-size="10">FRP2/3</text><text text-anchor="end" x="437" y="173" font-size="10">FRP5</text><text text-anchor="end" x="460" y="320" font-size="10">FRP6a</text><text text-anchor="end" x="408" y="53" font-size="10">MOp2/3</text><text text-anchor="end" x="416" y="83" font-size="10">MOp5</text><text text-anchor="end" x="408" y="53" font-size="10">MOp6a</text><text text-anchor="end" x="450" y="233" font-size="10">MOs1</text><text text-anchor="end" x="450" y="233" font-size="10">MOs2/3</text><text text-anchor="end" x="437" y="173" font-size="10">MOs5</text><text text-anchor="end" x="450" y="233" font-size="10">MOs6a</text><text text-anchor="end" x="436" y="176" font-size="10">SSp-n4</text><text text-anchor="end" x="416" y="144" font-size="10">SSp-n5</text><text text-anchor="end" x="433" y="180" font-size="10">SSp-n6a</text><text text-anchor="end" x="389" y="138" font-size="10">SSp-bfd2/3</text><text text-anchor="end" x="389" y="138" font-size="10">SSp-bfd4</text><text text-anchor="end" x="407" y="125" font-size="10">SSp-bfd5</text><text text-anchor="end" x="389" y="138" font-size="10">SSp-bfd6a</text><text text-anchor="end" x="446" y="20" font-size="10">SSp-ll2/3</text><text text-anchor="end" x="425" y="64" font-size="10">SSp-ll4</text><text text-anchor="end" x="434" y="69" font-size="10">SSp-ll5</text><text text-anchor="end" x="443" y="27" font-size="10">SSp-ll6a</text><text text-anchor="end" x="399" y="54" font-size="10">SSp-m2/3</text><text text-anchor="end" x="407" y="73" font-size="10">SSp-m4</text><text text-anchor="end" x="406" y="83" font-size="10">SSp-m5</text><text text-anchor="end" x="389" y="55" font-size="10">SSp-m6a</text><text text-anchor="end" x="359" y="69" font-size="10">SSp-ul2/3</text><text text-anchor="end" x="409" y="76" font-size="10">SSp-ul4</text><text text-anchor="end" x="409" y="76" font-size="10">SSp-ul5</text><text text-anchor="end" x="439" y="50" font-size="10">SSp-tr5</text><text text-anchor="end" x="331" y="116" font-size="10">SSs4</text><text text-anchor="end" x="348" y="103" font-size="10">SSs5</text><text text-anchor="end" x="331" y="74" font-size="10">SSs6a</text><text text-anchor="end" x="423" y="113" font-size="10">VISC5</text><text text-anchor="end" x="423" y="113" font-size="10">VISC6a</text><text text-anchor="end" x="205" y="107" font-size="10">AUDd2/3</text><text text-anchor="end" x="205" y="107" font-size="10">AUDd4</text><text text-anchor="end" x="119" y="126" font-size="10">AUDd5</text><text text-anchor="end" x="166" y="115" font-size="10">AUDd6a</text><text text-anchor="end" x="119" y="126" font-size="10">AUDp4</text><text text-anchor="end" x="119" y="126" font-size="10">AUDp5</text><text text-anchor="end" x="119" y="126" font-size="10">AUDp6a</text><text text-anchor="end" x="350" y="126" font-size="10">AUDpo5</text><text text-anchor="end" x="67" y="152" font-size="10">AUDpo6a</text><text x="477" y="297" font-size="10">FRP</text><text x="427" y="60" font-size="10">MOp</text><text x="467" y="220" font-size="10">MOs</text><text x="451" y="173" font-size="10">SSp-n</text><text x="408" y="135" font-size="10">SSp-bfd</text><text x="460" y="37" font-size="10">SSp-ll</text><text x="408" y="61" font-size="10">SSp-m</text><text x="414" y="68" font-size="10">SSp-ul</text><text x="465" y="24" font-size="10">SSp-tr</text><text x="370" y="126" font-size="10">SSp-un</text><text x="295" y="97" font-size="10">SSs</text><text x="370" y="126" font-size="10">GU</text><text x="370" y="126" font-size="10">VISC</text><text x="163" y="120" font-size="10">AUDd</text><text x="130" y="130" font-size="10">AUDp</text><text x="80" y="156" font-size="10">AUDpo</text><text x="181" y="115" font-size="10">AUDv</text><text x="370" y="126" font-size="10">VISal</text><text x="370" y="126" font-size="10">VISam</text><text x="370" y="126" font-size="10">VISl</text><text x="370" y="126" font-size="10">VISp</text><text x="370" y="126" font-size="10">VISpl</text><text x="370" y="126" font-size="10">VISpm</text><text x="370" y="126" font-size="10">VISli</text><text x="370" y="126" font-size="10">VISpor</text><text x="370" y="126" font-size="10">ACAd</text><text x="370" y="126" font-size="10">ACAv</text><text x="370" y="126" font-size="10">PL</text><text x="370" y="126" font-size="10">ILA</text><text x="370" y="126" font-size="10">ORBl</text><text x="370" y="126" font-size="10">ORBm</text><text x="370" y="126" font-size="10">ORBvl</text><text x="470" y="248" font-size="10">AId</text><text x="370" y="126" font-size="10">AIp</text><text x="370" y="126" font-size="10">AIv</text><text x="370" y="126" font-size="10">RSPagl</text><text x="370" y="126" font-size="10">RSPd</text><text x="370" y="126" font-size="10">RSPv</text><text x="370" y="126" font-size="10">VISa</text><text x="370" y="126" font-size="10">VISrl</text><text x="80" y="156" font-size="10">TEa</text><text x="370" y="126" font-size="10">PERI</text><text x="370" y="126" font-size="10">ECT</text><text x="370" y="126" font-size="10">MOB</text><text x="370" y="126" font-size="10">AOB</text><text x="370" y="126" font-size="10">AON</text><text x="370" y="126" font-size="10">TT</text><text x="370" y="126" font-size="10">DP</text><text x="370" y="126" font-size="10">PIR</text><text x="370" y="126" font-size="10">NLOT</text><text x="370" y="126" font-size="10">COAa</text><text x="370" y="126" font-size="10">COAp</text><text x="370" y="126" font-size="10">PAA</text><text x="370" y="126" font-size="10">TR</text><text x="370" y="126" font-size="10">CA1</text><text x="370" y="126" font-size="10">CA2</text><text x="370" y="126" font-size="10">CA3</text><text x="370" y="126" font-size="10">DG</text><text x="370" y="126" font-size="10">FC</text><text x="370" y="126" font-size="10">IG</text><text x="370" y="126" font-size="10">ENTl</text><text x="370" y="126" font-size="10">ENTm</text><text x="370" y="126" font-size="10">PAR</text><text x="370" y="126" font-size="10">POST</text><text x="370" y="126" font-size="10">PRE</text><text x="370" y="126" font-size="10">SUB</text><text x="370" y="126" font-size="10">ProS</text><text x="370" y="126" font-size="10">HATA</text><text x="370" y="126" font-size="10">APr</text><text x="370" y="126" font-size="10">CLA</text><text x="370" y="126" font-size="10">EPd</text><text x="370" y="126" font-size="10">EPv</text><text x="370" y="126" font-size="10">LA</text><text x="370" y="126" font-size="10">BLA</text><text x="370" y="126" font-size="10">BMA</text><text x="370" y="126" font-size="10">PA</text><text x="441" y="113" font-size="10">CP</text><text x="370" y="126" font-size="10">ACB</text><text x="370" y="126" font-size="10">FS</text><text x="370" y="126" font-size="10">OT</text><text x="370" y="126" font-size="10">LSc</text><text x="370" y="126" font-size="10">LSr</text><text x="370" y="126" font-size="10">LSv</text><text x="370" y="126" font-size="10">SF</text><text x="370" y="126" font-size="10">SH</text><text x="370" y="126" font-size="10">AAA</text><text x="370" y="126" font-size="10">BA</text><text x="370" y="126" font-size="10">CEA</text><text x="370" y="126" font-size="10">IA</text><text x="370" y="126" font-size="10">MEA</text><text x="370" y="126" font-size="10">GPe</text><text x="370" y="126" font-size="10">GPi</text><text x="370" y="126" font-size="10">SI</text><text x="370" y="126" font-size="10">MA</text><text x="370" y="126" font-size="10">MS</text><text x="370" y="126" font-size="10">NDB</text><text x="370" y="126" font-size="10">TRS</text><text x="370" y="126" font-size="10">BST</text><text x="370" y="126" font-size="10">BAC</text><text x="370" y="126" font-size="10">VAL</text><text x="370" y="126" font-size="10">VM</text></svg>
