<svg width="525.0" height="340"  xmlns="http://www.w3.org/2000/svg">
<path stroke-width="0.1" stroke="black" d="M 461 235 434 110"/>
<path stroke-width="0.1" stroke="black" d="M 351 248 464 60"/>
<path stroke-width="0.1" stroke="black" d="M 351 248 453 287"/>
<path stroke-width="0.1" stroke="black" d="M 351 248 467 263"/>
<path stroke-width="0.1" stroke="black" d="M 462 85 368 177"/>
<path stroke-width="0.1" stroke="black" d="M 462 85 368 177"/>
<path stroke-width="0.1" stroke="black" d="M 462 85 368 177"/>
<path stroke-width="0.1" stroke="black" d="M 462 85 368 177"/>
<path stroke-width="0.1" stroke="black" d="M 462 85 368 177"/>
<path stroke-width="0.1" stroke="black" d="M 462 85 469 48"/>
<path stroke-width="0.1" stroke="black" d="M 462 85 412 131"/>
<path stroke-width="0.1" stroke="black" d="M 351 248 419 130"/>
<path stroke-width="0.1" stroke="black" d="M 462 85 464 60"/>
<path stroke-width="0.1" stroke="black" d="M 462 85 467 263"/>
<path stroke-width="0.1" stroke="black" d="M 434 134 368 177"/>
<path stroke-width="0.1" stroke="black" d="M 434 134 368 177"/>
<path stroke-width="0.1" stroke="black" d="M 434 134 294 176"/>
<path stroke-width="0.1" stroke="black" d="M 434 134 469 48"/>
<path stroke-width="0.1" stroke="black" d="M 434 134 419 130"/>
<path stroke-width="0.1" stroke="black" d="M 434 134 412 131"/>
<path stroke-width="0.1" stroke="black" d="M 434 134 464 60"/>
<path stroke-width="0.1" stroke="black" d="M 434 134 410 303"/>
<path stroke-width="0.1" stroke="black" d="M 434 134 453 287"/>
<path stroke-width="0.1" stroke="black" d="M 462 85 453 287"/>
<path stroke-width="0.1" stroke="black" d="M 351 248 368 177"/>
<path stroke-width="0.1" stroke="black" d="M 351 248 157 169"/>
<path stroke-width="0.1" stroke="black" d="M 351 248 122 165"/>
<path stroke-width="0.1" stroke="black" d="M 352 151 368 177"/>
<path stroke-width="0.1" stroke="black" d="M 352 151 122 165"/>
<path stroke-width="0.1" stroke="black" d="M 352 151 157 169"/>
<path stroke-width="0.1" stroke="black" d="M 352 151 368 177"/>
<path stroke-width="0.1" stroke="black" d="M 352 151 368 177"/>
<path stroke-width="0.1" stroke="black" d="M 352 151 469 48"/>
<path stroke-width="0.1" stroke="black" d="M 352 151 419 130"/>
<path stroke-width="0.1" stroke="black" d="M 352 151 410 303"/>
<path stroke-width="0.1" stroke="black" d="M 352 151 453 287"/>
<path stroke-width="0.1" stroke="black" d="M 352 151 467 263"/>
<path stroke-width="0.1" stroke="black" d="M 369 177 368 177"/>
<path stroke-width="0.1" stroke="black" d="M 369 177 122 165"/>
<path stroke-width="0.1" stroke="black" d="M 369 177 157 169"/>
<path stroke-width="0.1" stroke="black" d="M 369 177 368 177"/>
<path stroke-width="0.1" stroke="black" d="M 369 177 469 48"/>
<path stroke-width="0.1" stroke="black" d="M 369 177 419 130"/>
<path stroke-width="0.1" stroke="black" d="M 369 177 464 60"/>
<path stroke-width="0.1" stroke="black" d="M 369 177 410 303"/>
<path stroke-width="0.1" stroke="black" d="M 369 177 453 287"/>
<path stroke-width="0.1" stroke="black" d="M 369 177 467 263"/>
<path stroke-width="0.1" stroke="black" d="M 351 248 368 177"/>
<path stroke-width="0.1" stroke="black" d="M 351 248 70 158"/>
<path stroke-width="0.1" stroke="black" d="M 351 248 368 177"/>
<path stroke-width="0.1" stroke="black" d="M 434 134 467 263"/>
<path stroke-width="0.1" stroke="black" d="M 434 134 368 177"/>
<path stroke-width="0.1" stroke="black" d="M 434 134 368 177"/>
<path stroke-width="0.1" stroke="black" d="M 434 134 463 243"/>
<path stroke-width="0.1" stroke="black" d="M 430 152 368 177"/>
<path stroke-width="0.1" stroke="black" d="M 430 152 368 177"/>
<path stroke-width="0.1" stroke="black" d="M 430 152 157 169"/>
<path stroke-width="0.1" stroke="black" d="M 430 152 368 177"/>
<path stroke-width="0.1" stroke="black" d="M 430 152 368 177"/>
<path stroke-width="0.1" stroke="black" d="M 430 152 469 48"/>
<path stroke-width="0.1" stroke="black" d="M 430 152 419 130"/>
<path stroke-width="0.1" stroke="black" d="M 430 152 410 303"/>
<path stroke-width="0.1" stroke="black" d="M 430 152 453 287"/>
<path stroke-width="0.1" stroke="black" d="M 430 152 467 263"/>
<path stroke-width="0.1" stroke="black" d="M 432 135 368 177"/>
<path stroke-width="0.1" stroke="black" d="M 432 135 368 177"/>
<path stroke-width="0.1" stroke="black" d="M 432 135 157 169"/>
<path stroke-width="0.1" stroke="black" d="M 432 135 368 177"/>
<path stroke-width="0.1" stroke="black" d="M 432 135 368 177"/>
<path stroke-width="0.1" stroke="black" d="M 432 135 469 48"/>
<path stroke-width="0.1" stroke="black" d="M 432 135 419 130"/>
<path stroke-width="0.1" stroke="black" d="M 432 135 410 303"/>
<path stroke-width="0.1" stroke="black" d="M 432 135 453 287"/>
<path stroke-width="0.1" stroke="black" d="M 432 135 467 263"/>
<path stroke-width="0.1" stroke="black" d="M 424 114 368 177"/>
<path stroke-width="0.1" stroke="black" d="M 424 114 368 177"/>
<path stroke-width="0.1" stroke="black" d="M 424 114 157 169"/>
<path stroke-width="0.1" stroke="black" d="M 413 126 467 263"/>
<path stroke-width="0.1" stroke="black" d="M 446 177 467 263"/>
<path stroke-width="0.1" stroke="black" d="M 413 126 453 287"/>
<path stroke-width="0.1" stroke="black" d="M 413 126 419 130"/>
<path stroke-width="0.1" stroke="black" d="M 434 134 368 177"/>
<path stroke-width="0.1" stroke="black" d="M 434 134 294 176"/>
<path stroke-width="0.1" stroke="black" d="M 434 134 469 48"/>
<path stroke-width="0.1" stroke="black" d="M 434 134 412 131"/>
<path stroke-width="0.1" stroke="black" d="M 434 134 410 303"/>
<path stroke-width="0.1" stroke="black" d="M 434 134 453 287"/>
<path stroke-width="0.1" stroke="black" d="M 434 134 467 263"/>
<path stroke-width="0.1" stroke="black" d="M 383 134 368 177"/>
<path stroke-width="0.1" stroke="black" d="M 383 134 368 177"/>
<path stroke-width="0.1" stroke="black" d="M 383 134 294 176"/>
<path stroke-width="0.1" stroke="black" d="M 383 134 469 48"/>
<path stroke-width="0.1" stroke="black" d="M 383 134 419 130"/>
<path stroke-width="0.1" stroke="black" d="M 383 134 412 131"/>
<path stroke-width="0.1" stroke="black" d="M 383 134 464 60"/>
<path stroke-width="0.1" stroke="black" d="M 383 134 410 303"/>
<path stroke-width="0.1" stroke="black" d="M 383 134 453 287"/>
<path stroke-width="0.1" stroke="black" d="M 383 134 467 263"/>
<path stroke-width="0.1" stroke="black" d="M 413 126 368 177"/>
<path stroke-width="0.1" stroke="black" d="M 413 126 368 177"/>
<path stroke-width="0.1" stroke="black" d="M 413 126 368 177"/>
<path stroke-width="0.1" stroke="black" d="M 413 126 368 177"/>
<path stroke-width="0.1" stroke="black" d="M 413 126 368 177"/>
<path stroke-width="0.1" stroke="black" d="M 413 126 368 177"/>
<path stroke-width="0.1" stroke="black" d="M 413 126 410 303"/>
<path stroke-width="0.1" stroke="black" d="M 446 177 453 287"/>
<path stroke-width="0.1" stroke="black" d="M 446 177 419 130"/>
<path stroke-width="0.1" stroke="black" d="M 446 177 368 177"/>
<path stroke-width="0.1" stroke="black" d="M 132 167 368 177"/>
<path stroke-width="0.1" stroke="black" d="M 132 167 368 177"/>
<path stroke-width="0.1" stroke="black" d="M 132 167 368 177"/>
<path stroke-width="0.1" stroke="black" d="M 132 167 368 177"/>
<path stroke-width="0.1" stroke="black" d="M 132 167 368 177"/>
<path stroke-width="0.1" stroke="black" d="M 132 167 368 177"/>
<path stroke-width="0.1" stroke="black" d="M 132 167 176 170"/>
<path stroke-width="0.1" stroke="black" d="M 132 167 70 158"/>
<path stroke-width="0.1" stroke="black" d="M 132 167 122 165"/>
<path stroke-width="0.1" stroke="black" d="M 132 167 368 177"/>
<path stroke-width="0.1" stroke="black" d="M 132 167 464 60"/>
<path stroke-width="0.1" stroke="black" d="M 132 167 368 177"/>
<path stroke-width="0.1" stroke="black" d="M 132 167 368 177"/>
<path stroke-width="0.1" stroke="black" d="M 132 167 368 177"/>
<path stroke-width="0.1" stroke="black" d="M 132 167 368 177"/>
<path stroke-width="0.1" stroke="black" d="M 132 167 368 177"/>
<path stroke-width="0.1" stroke="black" d="M 132 167 176 170"/>
<path stroke-width="0.1" stroke="black" d="M 132 167 70 158"/>
<path stroke-width="0.1" stroke="black" d="M 132 167 122 165"/>
<path stroke-width="0.1" stroke="black" d="M 132 167 368 177"/>
<path stroke-width="0.1" stroke="black" d="M 132 167 464 60"/>
<path stroke-width="0.1" stroke="black" d="M 181 170 368 177"/>
<path stroke-width="0.1" stroke="black" d="M 181 170 368 177"/>
<path stroke-width="0.1" stroke="black" d="M 132 167 122 165"/>
<path stroke-width="0.1" stroke="black" d="M 181 170 368 177"/>
<path stroke-width="0.1" stroke="black" d="M 132 167 70 158"/>
<path stroke-width="0.1" stroke="black" d="M 132 167 368 177"/>
<path stroke-width="0.1" stroke="black" d="M 77 159 368 177"/>
<path stroke-width="0.1" stroke="black" d="M 77 159 368 177"/>
<path stroke-width="0.1" stroke="black" d="M 77 159 368 177"/>
<path stroke-width="0.1" stroke="black" d="M 77 159 368 177"/>
<path stroke-width="0.1" stroke="black" d="M 77 159 368 177"/>
<path stroke-width="0.1" stroke="black" d="M 77 159 176 170"/>
<path stroke-width="0.1" stroke="black" d="M 77 159 70 158"/>
<path stroke-width="0.1" stroke="black" d="M 77 159 122 165"/>
<path stroke-width="0.1" stroke="black" d="M 368 177 368 177"/>
<path stroke-width="0.1" stroke="black" d="M 368 177 368 177"/>
<path stroke-width="0.1" stroke="black" d="M 368 177 70 158"/>
<path stroke-width="0.1" stroke="black" d="M 368 177 368 177"/>
<path stroke-width="0.1" stroke="black" d="M 368 177 368 177"/>
<path stroke-width="0.1" stroke="black" d="M 368 177 368 177"/>
<path stroke-width="0.1" stroke="black" d="M 368 177 368 177"/>
<path stroke-width="0.1" stroke="black" d="M 368 177 176 170"/>
<path stroke-width="0.1" stroke="black" d="M 368 177 70 158"/>
<path stroke-width="0.1" stroke="black" d="M 368 177 122 165"/>
<path stroke-width="0.1" stroke="black" d="M 132 167 368 177"/>
<path stroke-width="0.1" stroke="black" d="M 132 167 368 177"/>
<path stroke-width="0.1" stroke="black" d="M 132 167 368 177"/>
<path stroke-width="0.1" stroke="black" d="M 132 167 368 177"/>
<path stroke-width="0.1" stroke="black" d="M 132 167 368 177"/>
<path stroke-width="0.1" stroke="black" d="M 132 167 176 170"/>
<path stroke-width="0.1" stroke="black" d="M 424 114 368 177"/>
<path stroke-width="0.1" stroke="black" d="M 181 170 368 177"/>
<path stroke-width="0.1" stroke="black" d="M 181 170 122 165"/>
<path stroke-width="0.1" stroke="black" d="M 221 173 463 243"/>
<path stroke-width="0.1" stroke="black" d="M 221 173 368 177"/>
<path stroke-width="0.1" stroke="black" d="M 221 173 70 158"/>
<path stroke-width="0.1" stroke="black" d="M 221 173 122 165"/>
<path stroke-width="0.1" stroke="black" d="M 221 173 368 177"/>
<path stroke-width="0.1" stroke="black" d="M 221 173 368 177"/>
<path stroke-width="0.1" stroke="black" d="M 221 173 464 60"/>
<path stroke-width="0.1" stroke="black" d="M 446 177 368 177"/>
<path stroke-width="0.1" stroke="black" d="M 446 177 368 177"/>
<path stroke-width="0.1" stroke="black" d="M 446 177 368 177"/>
<path stroke-width="0.1" stroke="black" d="M 446 177 368 177"/>
<path stroke-width="0.1" stroke="black" d="M 446 177 157 169"/>
<path stroke-width="0.1" stroke="black" d="M 446 177 368 177"/>
<path stroke-width="0.1" stroke="black" d="M 446 177 368 177"/>
<path stroke-width="0.1" stroke="black" d="M 446 177 419 130"/>
<path stroke-width="0.1" stroke="black" d="M 446 177 453 287"/>
<path stroke-width="0.1" stroke="black" d="M 446 177 467 263"/>
<path stroke-width="0.1" stroke="black" d="M 446 177 368 177"/>
<path stroke-width="0.1" stroke="black" d="M 446 177 368 177"/>
<path stroke-width="0.1" stroke="black" d="M 446 177 368 177"/>
<path stroke-width="0.1" stroke="black" d="M 446 177 368 177"/>
<path stroke-width="0.1" stroke="black" d="M 446 177 157 169"/>
<path stroke-width="0.1" stroke="black" d="M 446 177 368 177"/>
<path stroke-width="0.1" stroke="black" d="M 221 173 368 177"/>
<path stroke-width="0.1" stroke="black" d="M 181 170 70 158"/>
<path stroke-width="0.1" stroke="black" d="M 221 173 368 177"/>
<path stroke-width="0.1" stroke="black" d="M 221 173 464 60"/>
<path stroke-width="0.1" stroke="black" d="M 181 170 157 169"/>
<path stroke-width="0.1" stroke="black" d="M 181 170 368 177"/>
<path stroke-width="0.1" stroke="black" d="M 181 170 368 177"/>
<path stroke-width="0.1" stroke="black" d="M 181 170 464 60"/>
<path stroke-width="0.1" stroke="black" d="M 132 167 368 177"/>
<path stroke-width="0.1" stroke="black" d="M 132 167 368 177"/>
<path stroke-width="0.1" stroke="black" d="M 132 167 368 177"/>
<path stroke-width="0.1" stroke="black" d="M 132 167 368 177"/>
<path stroke-width="0.1" stroke="black" d="M 132 167 176 170"/>
<path stroke-width="0.1" stroke="black" d="M 132 167 70 158"/>
<path stroke-width="0.1" stroke="black" d="M 132 167 122 165"/>
<path stroke-width="0.1" stroke="black" d="M 132 167 368 177"/>
<path stroke-width="0.1" stroke="black" d="M 132 167 368 177"/>
<path stroke-width="0.1" stroke="black" d="M 132 167 464 60"/>
<path stroke-width="0.1" stroke="black" d="M 221 173 368 177"/>
<path stroke-width="0.1" stroke="black" d="M 221 173 368 177"/>
<path stroke-width="0.1" stroke="black" d="M 221 173 368 177"/>
<path stroke-width="0.1" stroke="black" d="M 221 173 368 177"/>
<path stroke-width="0.1" stroke="black" d="M 221 173 176 170"/>
<path stroke-width="0.1" stroke="black" d="M 221 173 70 158"/>
<path stroke-width="0.1" stroke="black" d="M 221 173 122 165"/>
<path stroke-width="0.1" stroke="black" d="M 221 173 368 177"/>
<path stroke-width="0.1" stroke="black" d="M 221 173 368 177"/>
<path stroke-width="0.1" stroke="black" d="M 221 173 368 177"/>
<path stroke-width="0.1" stroke="black" d="M 424 114 294 176"/>
<path stroke-width="0.1" stroke="black" d="M 424 114 469 48"/>
<path stroke-width="0.1" stroke="black" d="M 424 114 419 130"/>
<path stroke-width="0.1" stroke="black" d="M 469 275 368 177"/>
<path stroke-width="0.1" stroke="black" d="M 469 275 368 177"/>
<path stroke-width="0.1" stroke="black" d="M 469 275 368 177"/>
<path stroke-width="0.1" stroke="black" d="M 469 275 419 130"/>
<path stroke-width="0.1" stroke="black" d="M 469 275 410 303"/>
<path stroke-width="0.1" stroke="black" d="M 469 275 453 287"/>
<path stroke-width="0.1" stroke="black" d="M 469 275 467 263"/>
<path stroke-width="0.1" stroke="black" d="M 469 275 434 110"/>
<path stroke-width="0.1" stroke="black" d="M 469 275 368 177"/>
<path stroke-width="0.1" stroke="black" d="M 469 275 368 177"/>
<path stroke-width="0.1" stroke="black" d="M 469 275 368 177"/>
<path stroke-width="0.1" stroke="black" d="M 469 275 368 177"/>
<path stroke-width="0.1" stroke="black" d="M 469 275 157 169"/>
<path stroke-width="0.1" stroke="black" d="M 469 275 368 177"/>
<path stroke-width="0.1" stroke="black" d="M 469 275 419 130"/>
<path stroke-width="0.1" stroke="black" d="M 469 275 453 287"/>
<path stroke-width="0.1" stroke="black" d="M 469 275 467 263"/>
<path stroke-width="0.1" stroke="black" d="M 469 275 434 110"/>
<path stroke-width="0.1" stroke="black" d="M 449 51 460 20"/>
<path stroke-width="0.1" stroke="black" d="M 449 51 368 177"/>
<path stroke-width="0.1" stroke="black" d="M 449 51 368 177"/>
<path stroke-width="0.1" stroke="black" d="M 449 51 368 177"/>
<path stroke-width="0.1" stroke="black" d="M 449 51 294 176"/>
<path stroke-width="0.1" stroke="black" d="M 469 275 368 177"/>
<path stroke-width="0.1" stroke="black" d="M 449 51 469 48"/>
<path stroke-width="0.1" stroke="black" d="M 469 275 368 177"/>
<path stroke-width="0.1" stroke="black" d="M 458 226 467 263"/>
<path stroke-width="0.1" stroke="black" d="M 457 252 419 130"/>
<path stroke-width="0.1" stroke="black" d="M 457 252 464 60"/>
<path stroke-width="0.1" stroke="black" d="M 457 252 410 303"/>
<path stroke-width="0.1" stroke="black" d="M 457 252 453 287"/>
<path stroke-width="0.1" stroke="black" d="M 457 252 467 263"/>
<path stroke-width="0.1" stroke="black" d="M 469 275 460 20"/>
<path stroke-width="0.1" stroke="black" d="M 469 275 368 177"/>
<path stroke-width="0.1" stroke="black" d="M 469 275 368 177"/>
<path stroke-width="0.1" stroke="black" d="M 469 275 368 177"/>
<path stroke-width="0.1" stroke="black" d="M 469 275 368 177"/>
<path stroke-width="0.1" stroke="black" d="M 469 275 368 177"/>
<path stroke-width="0.1" stroke="black" d="M 469 275 419 130"/>
<path stroke-width="0.1" stroke="black" d="M 469 275 453 287"/>
<path stroke-width="0.1" stroke="black" d="M 469 275 467 263"/>
<path stroke-width="0.1" stroke="black" d="M 469 275 434 110"/>
<path stroke-width="0.1" stroke="black" d="M 458 226 368 177"/>
<path stroke-width="0.1" stroke="black" d="M 458 226 368 177"/>
<path stroke-width="0.1" stroke="black" d="M 458 226 368 177"/>
<path stroke-width="0.1" stroke="black" d="M 458 226 368 177"/>
<path stroke-width="0.1" stroke="black" d="M 458 226 368 177"/>
<path stroke-width="0.1" stroke="black" d="M 458 226 419 130"/>
<path stroke-width="0.1" stroke="black" d="M 458 226 464 60"/>
<path stroke-width="0.1" stroke="black" d="M 458 226 453 287"/>
<path stroke-width="0.1" stroke="black" d="M 458 226 434 110"/>
<path stroke-width="0.1" stroke="black" d="M 457 252 469 48"/>
<path stroke-width="0.1" stroke="black" d="M 449 51 412 131"/>
<path stroke-width="0.1" stroke="black" d="M 449 51 453 287"/>
<path stroke-width="0.1" stroke="black" d="M 368 177 368 177"/>
<path stroke-width="0.1" stroke="black" d="M 368 177 368 177"/>
<path stroke-width="0.1" stroke="black" d="M 368 177 453 287"/>
<path stroke-width="0.1" stroke="black" d="M 368 177 434 110"/>
<path stroke-width="0.1" stroke="black" d="M 458 226 460 20"/>
<path stroke-width="0.1" stroke="black" d="M 458 226 368 177"/>
<path stroke-width="0.1" stroke="black" d="M 458 226 368 177"/>
<path stroke-width="0.1" stroke="black" d="M 458 226 368 177"/>
<path stroke-width="0.1" stroke="black" d="M 458 226 368 177"/>
<path stroke-width="0.1" stroke="black" d="M 458 226 368 177"/>
<path stroke-width="0.1" stroke="black" d="M 458 226 368 177"/>
<path stroke-width="0.1" stroke="black" d="M 458 226 453 287"/>
<path stroke-width="0.1" stroke="black" d="M 458 226 467 263"/>
<path stroke-width="0.1" stroke="black" d="M 458 226 434 110"/>
<path stroke-width="0.1" stroke="black" d="M 461 235 368 177"/>
<path stroke-width="0.1" stroke="black" d="M 461 235 368 177"/>
<path stroke-width="0.1" stroke="black" d="M 461 235 368 177"/>
<path stroke-width="0.1" stroke="black" d="M 461 235 368 177"/>
<path stroke-width="0.1" stroke="black" d="M 461 235 368 177"/>
<path stroke-width="0.1" stroke="black" d="M 461 235 368 177"/>
<path stroke-width="0.1" stroke="black" d="M 461 235 157 169"/>
<path stroke-width="0.1" stroke="black" d="M 461 235 453 287"/>
<path stroke-width="0.1" stroke="black" d="M 461 235 467 263"/>
<path stroke-width="0.1" stroke="black" d="M 368 177 368 177"/>
<path stroke-width="0.1" stroke="black" d="M 449 51 464 60"/>
<path stroke-width="0.1" stroke="black" d="M 368 177 368 177"/>
<path stroke-width="0.1" stroke="black" d="M 368 177 368 177"/>
<path stroke-width="0.1" stroke="black" d="M 449 51 467 263"/>
<path stroke-width="0.1" stroke="black" d="M 441 140 460 20"/>
<path stroke-width="0.1" stroke="black" d="M 441 140 368 177"/>
<path stroke-width="0.1" stroke="black" d="M 441 140 368 177"/>
<path stroke-width="0.1" stroke="black" d="M 441 140 368 177"/>
<path stroke-width="0.1" stroke="black" d="M 441 140 368 177"/>
<path stroke-width="0.1" stroke="black" d="M 441 140 469 48"/>
<path stroke-width="0.1" stroke="black" d="M 441 140 419 130"/>
<path stroke-width="0.1" stroke="black" d="M 441 140 412 131"/>
<path stroke-width="0.1" stroke="black" d="M 441 140 453 287"/>
<path stroke-width="0.1" stroke="black" d="M 441 140 467 263"/>
<path stroke-width="0.1" stroke="black" d="M 435 102 460 20"/>
<path stroke-width="0.1" stroke="black" d="M 435 102 368 177"/>
<path stroke-width="0.1" stroke="black" d="M 435 102 368 177"/>
<path stroke-width="0.1" stroke="black" d="M 435 102 368 177"/>
<path stroke-width="0.1" stroke="black" d="M 435 102 294 176"/>
<path stroke-width="0.1" stroke="black" d="M 435 102 469 48"/>
<path stroke-width="0.1" stroke="black" d="M 435 102 419 130"/>
<path stroke-width="0.1" stroke="black" d="M 435 102 412 131"/>
<path stroke-width="0.1" stroke="black" d="M 435 102 453 287"/>
<path stroke-width="0.1" stroke="black" d="M 435 102 467 263"/>
<path stroke-width="0.1" stroke="black" d="M 368 177 460 20"/>
<path stroke-width="0.1" stroke="black" d="M 368 177 368 177"/>
<path stroke-width="0.1" stroke="black" d="M 368 177 368 177"/>
<path stroke-width="0.1" stroke="black" d="M 77 159 368 177"/>
<path stroke-width="0.1" stroke="black" d="M 457 252 294 176"/>
<path stroke-width="0.1" stroke="black" d="M 457 252 157 169"/>
<path stroke-width="0.1" stroke="black" d="M 450 108 368 177"/>
<path stroke-width="0.1" stroke="black" d="M 450 108 469 48"/>
<path stroke-width="0.1" stroke="black" d="M 450 108 412 131"/>
<path stroke-width="0.1" stroke="black" d="M 450 108 464 60"/>
<path stroke-width="0.1" stroke="black" d="M 450 108 453 287"/>
<path stroke-width="0.1" stroke="black" d="M 450 108 467 263"/>
<path stroke-width="0.1" stroke="black" d="M 470 39 368 177"/>
<path stroke-width="0.1" stroke="black" d="M 470 39 368 177"/>
<path stroke-width="0.1" stroke="black" d="M 470 39 368 177"/>
<path stroke-width="0.1" stroke="black" d="M 470 39 122 165"/>
<path stroke-width="0.1" stroke="black" d="M 470 39 368 177"/>
<path stroke-width="0.1" stroke="black" d="M 470 39 368 177"/>
<path stroke-width="0.1" stroke="black" d="M 470 39 469 48"/>
<path stroke-width="0.1" stroke="black" d="M 470 39 412 131"/>
<path stroke-width="0.1" stroke="black" d="M 470 39 464 60"/>
<path stroke-width="0.1" stroke="black" d="M 470 39 467 263"/>
<path stroke-width="0.1" stroke="black" d="M 411 319 368 177"/>
<path stroke-width="0.1" stroke="black" d="M 411 319 368 177"/>
<path stroke-width="0.1" stroke="black" d="M 411 319 70 158"/>
<path stroke-width="0.1" stroke="black" d="M 411 319 368 177"/>
<path stroke-width="0.1" stroke="black" d="M 411 319 294 176"/>
<path stroke-width="0.1" stroke="black" d="M 411 319 469 48"/>
<path stroke-width="0.1" stroke="black" d="M 411 319 464 60"/>
<path stroke-width="0.1" stroke="black" d="M 450 108 368 177"/>
<path stroke-width="0.1" stroke="black" d="M 411 319 410 303"/>
<path stroke-width="0.1" stroke="black" d="M 450 108 122 165"/>
<path stroke-width="0.1" stroke="black" d="M 450 108 368 177"/>
<path stroke-width="0.1" stroke="black" d="M 424 114 410 303"/>
<path stroke-width="0.1" stroke="black" d="M 424 114 453 287"/>
<path stroke-width="0.1" stroke="black" d="M 424 114 467 263"/>
<path stroke-width="0.1" stroke="black" d="M 465 23 460 20"/>
<path stroke-width="0.1" stroke="black" d="M 465 23 368 177"/>
<path stroke-width="0.1" stroke="black" d="M 465 23 368 177"/>
<path stroke-width="0.1" stroke="black" d="M 465 23 368 177"/>
<path stroke-width="0.1" stroke="black" d="M 465 23 294 176"/>
<path stroke-width="0.1" stroke="black" d="M 465 23 368 177"/>
<path stroke-width="0.1" stroke="black" d="M 465 23 469 48"/>
<path stroke-width="0.1" stroke="black" d="M 465 23 412 131"/>
<path stroke-width="0.1" stroke="black" d="M 465 23 453 287"/>
<path stroke-width="0.1" stroke="black" d="M 465 23 467 263"/>
<path stroke-width="0.1" stroke="black" d="M 457 112 368 177"/>
<path stroke-width="0.1" stroke="black" d="M 457 112 368 177"/>
<path stroke-width="0.1" stroke="black" d="M 457 112 368 177"/>
<path stroke-width="0.1" stroke="black" d="M 457 112 294 176"/>
<path stroke-width="0.1" stroke="black" d="M 457 112 368 177"/>
<path stroke-width="0.1" stroke="black" d="M 457 112 469 48"/>
<path stroke-width="0.1" stroke="black" d="M 457 112 412 131"/>
<path stroke-width="0.1" stroke="black" d="M 457 112 464 60"/>
<path stroke-width="0.1" stroke="black" d="M 457 112 453 287"/>
<path stroke-width="0.1" stroke="black" d="M 457 112 467 263"/>
<path stroke-width="0.1" stroke="black" d="M 450 108 368 177"/>
<path stroke-width="0.1" stroke="black" d="M 457 252 368 177"/>
<path stroke-width="0.1" stroke="black" d="M 411 319 453 287"/>
<path stroke-width="0.1" stroke="black" d="M 429 249 368 177"/>
<path stroke-width="0.1" stroke="black" d="M 411 319 453 287"/>
<path stroke-width="0.1" stroke="black" d="M 411 319 467 263"/>
<path stroke-width="0.1" stroke="black" d="M 455 302 368 177"/>
<path stroke-width="0.1" stroke="black" d="M 455 302 368 177"/>
<path stroke-width="0.1" stroke="black" d="M 455 302 368 177"/>
<path stroke-width="0.1" stroke="black" d="M 455 302 294 176"/>
<path stroke-width="0.1" stroke="black" d="M 455 302 469 48"/>
<path stroke-width="0.1" stroke="black" d="M 455 302 419 130"/>
<path stroke-width="0.1" stroke="black" d="M 455 302 464 60"/>
<path stroke-width="0.1" stroke="black" d="M 455 302 410 303"/>
<path stroke-width="0.1" stroke="black" d="M 455 302 453 287"/>
<path stroke-width="0.1" stroke="black" d="M 455 302 467 263"/>
<path stroke-width="0.1" stroke="black" d="M 438 267 368 177"/>
<path stroke-width="0.1" stroke="black" d="M 438 267 157 169"/>
<path stroke-width="0.1" stroke="black" d="M 438 267 368 177"/>
<path stroke-width="0.1" stroke="black" d="M 438 267 294 176"/>
<path stroke-width="0.1" stroke="black" d="M 438 267 469 48"/>
<path stroke-width="0.1" stroke="black" d="M 438 267 419 130"/>
<path stroke-width="0.1" stroke="black" d="M 438 267 464 60"/>
<path stroke-width="0.1" stroke="black" d="M 438 267 410 303"/>
<path stroke-width="0.1" stroke="black" d="M 438 267 453 287"/>
<path stroke-width="0.1" stroke="black" d="M 438 267 467 263"/>
<path stroke-width="0.1" stroke="black" d="M 457 252 368 177"/>
<path stroke-width="0.1" stroke="black" d="M 411 319 410 303"/>
<path stroke-width="0.1" stroke="black" d="M 411 319 467 263"/>
<path stroke-width="0.1" stroke="black" d="M 411 319 464 60"/>
<path stroke-width="0.1" stroke="black" d="M 411 319 368 177"/>
<path stroke-width="0.1" stroke="black" d="M 429 249 70 158"/>
<path stroke-width="0.1" stroke="black" d="M 429 249 368 177"/>
<path stroke-width="0.1" stroke="black" d="M 429 249 368 177"/>
<path stroke-width="0.1" stroke="black" d="M 429 249 294 176"/>
<path stroke-width="0.1" stroke="black" d="M 429 249 469 48"/>
<path stroke-width="0.1" stroke="black" d="M 429 249 464 60"/>
<path stroke-width="0.1" stroke="black" d="M 429 249 410 303"/>
<path stroke-width="0.1" stroke="black" d="M 429 249 453 287"/>
<path stroke-width="0.1" stroke="black" d="M 429 249 467 263"/>
<path stroke-width="0.1" stroke="black" d="M 411 320 368 177"/>
<path stroke-width="0.1" stroke="black" d="M 411 320 70 158"/>
<path stroke-width="0.1" stroke="black" d="M 411 320 368 177"/>
<path stroke-width="0.1" stroke="black" d="M 411 320 368 177"/>
<path stroke-width="0.1" stroke="black" d="M 411 320 294 176"/>
<path stroke-width="0.1" stroke="black" d="M 411 320 469 48"/>
<path stroke-width="0.1" stroke="black" d="M 411 320 464 60"/>
<path stroke-width="0.1" stroke="black" d="M 411 320 410 303"/>
<path stroke-width="0.1" stroke="black" d="M 411 320 453 287"/>
<path stroke-width="0.1" stroke="black" d="M 411 320 467 263"/>
<path stroke-width="0.1" stroke="black" d="M 411 319 368 177"/>
<path stroke-width="0.1" stroke="black" d="M 411 319 368 177"/>
<path stroke-width="0.1" stroke="black" d="M 411 319 368 177"/>
<path stroke-width="0.1" stroke="black" d="M 411 319 294 176"/>
<path stroke-width="0.1" stroke="black" d="M 411 319 469 48"/>
<path stroke-width="0.1" stroke="black" d="M 77 159 368 177"/>
<circle cx="461" cy="235" r="7.0" style="fill:blue;stroke:black;stroke-width:1.0"/>
<circle cx="458" cy="226" r="7.0" style="fill:blue;stroke:black;stroke-width:1.0"/>
<circle cx="368" cy="177" r="7.0" style="fill:blue;stroke:black;stroke-width:1.0"/>
<circle cx="435" cy="102" r="7.0" style="fill:blue;stroke:black;stroke-width:1.0"/>
<circle cx="441" cy="140" r="7.0" style="fill:blue;stroke:black;stroke-width:1.0"/>
<circle cx="449" cy="51" r="7.0" style="fill:blue;stroke:black;stroke-width:1.0"/>
<circle cx="469" cy="275" r="7.0" style="fill:blue;stroke:black;stroke-width:1.0"/>
<circle cx="469" cy="275" r="7.0" style="fill:blue;stroke:black;stroke-width:1.0"/>
<circle cx="458" cy="226" r="7.0" style="fill:blue;stroke:black;stroke-width:1.0"/>
<circle cx="469" cy="275" r="7.0" style="fill:blue;stroke:black;stroke-width:1.0"/>
<circle cx="457" cy="252" r="7.0" style="fill:blue;stroke:black;stroke-width:1.0"/>
<circle cx="438" cy="267" r="7.0" style="fill:blue;stroke:black;stroke-width:1.0"/>
<circle cx="455" cy="302" r="7.0" style="fill:blue;stroke:black;stroke-width:1.0"/>
<circle cx="411" cy="319" r="7.0" style="fill:blue;stroke:black;stroke-width:1.0"/>
<circle cx="411" cy="320" r="7.0" style="fill:blue;stroke:black;stroke-width:1.0"/>
<circle cx="429" cy="249" r="7.0" style="fill:blue;stroke:black;stroke-width:1.0"/>
<circle cx="411" cy="319" r="7.0" style="fill:blue;stroke:black;stroke-width:1.0"/>
<circle cx="470" cy="39" r="7.0" style="fill:blue;stroke:black;stroke-width:1.0"/>
<circle cx="450" cy="108" r="7.0" style="fill:blue;stroke:black;stroke-width:1.0"/>
<circle cx="457" cy="112" r="7.0" style="fill:blue;stroke:black;stroke-width:1.0"/>
<circle cx="465" cy="23" r="7.0" style="fill:blue;stroke:black;stroke-width:1.0"/>
<circle cx="424" cy="114" r="7.0" style="fill:blue;stroke:black;stroke-width:1.0"/>
<circle cx="432" cy="135" r="7.0" style="fill:blue;stroke:black;stroke-width:1.0"/>
<circle cx="430" cy="152" r="7.0" style="fill:blue;stroke:black;stroke-width:1.0"/>
<circle cx="413" cy="126" r="7.0" style="fill:blue;stroke:black;stroke-width:1.0"/>
<circle cx="383" cy="134" r="7.0" style="fill:blue;stroke:black;stroke-width:1.0"/>
<circle cx="434" cy="134" r="7.0" style="fill:blue;stroke:black;stroke-width:1.0"/>
<circle cx="434" cy="134" r="7.0" style="fill:blue;stroke:black;stroke-width:1.0"/>
<circle cx="462" cy="85" r="7.0" style="fill:blue;stroke:black;stroke-width:1.0"/>
<circle cx="351" cy="248" r="7.0" style="fill:blue;stroke:black;stroke-width:1.0"/>
<circle cx="369" cy="177" r="7.0" style="fill:blue;stroke:black;stroke-width:1.0"/>
<circle cx="352" cy="151" r="7.0" style="fill:blue;stroke:black;stroke-width:1.0"/>
<circle cx="446" cy="177" r="7.0" style="fill:blue;stroke:black;stroke-width:1.0"/>
<circle cx="446" cy="177" r="7.0" style="fill:blue;stroke:black;stroke-width:1.0"/>
<circle cx="221" cy="173" r="7.0" style="fill:blue;stroke:black;stroke-width:1.0"/>
<circle cx="221" cy="173" r="7.0" style="fill:blue;stroke:black;stroke-width:1.0"/>
<circle cx="132" cy="167" r="7.0" style="fill:blue;stroke:black;stroke-width:1.0"/>
<circle cx="181" cy="170" r="7.0" style="fill:blue;stroke:black;stroke-width:1.0"/>
<circle cx="132" cy="167" r="7.0" style="fill:blue;stroke:black;stroke-width:1.0"/>
<circle cx="132" cy="167" r="7.0" style="fill:blue;stroke:black;stroke-width:1.0"/>
<circle cx="132" cy="167" r="7.0" style="fill:blue;stroke:black;stroke-width:1.0"/>
<circle cx="368" cy="177" r="7.0" style="fill:blue;stroke:black;stroke-width:1.0"/>
<circle cx="77" cy="159" r="7.0" style="fill:blue;stroke:black;stroke-width:1.0"/>
<circle cx="434" cy="110" r="7.0" style="fill:red;stroke:black;stroke-width:1.0"/>
<circle cx="467" cy="263" r="7.0" style="fill:red;stroke:black;stroke-width:1.0"/>
<circle cx="453" cy="287" r="7.0" style="fill:red;stroke:black;stroke-width:1.0"/>
<circle cx="410" cy="303" r="7.0" style="fill:red;stroke:black;stroke-width:1.0"/>
<circle cx="464" cy="60" r="7.0" style="fill:red;stroke:black;stroke-width:1.0"/>
<circle cx="412" cy="131" r="7.0" style="fill:red;stroke:black;stroke-width:1.0"/>
<circle cx="419" cy="130" r="7.0" style="fill:red;stroke:black;stroke-width:1.0"/>
<circle cx="469" cy="48" r="7.0" style="fill:red;stroke:black;stroke-width:1.0"/>
<circle cx="368" cy="177" r="7.0" style="fill:red;stroke:black;stroke-width:1.0"/>
<circle cx="294" cy="176" r="7.0" style="fill:red;stroke:black;stroke-width:1.0"/>
<circle cx="368" cy="177" r="7.0" style="fill:red;stroke:black;stroke-width:1.0"/>
<circle cx="368" cy="177" r="7.0" style="fill:red;stroke:black;stroke-width:1.0"/>
<circle cx="157" cy="169" r="7.0" style="fill:red;stroke:black;stroke-width:1.0"/>
<circle cx="122" cy="165" r="7.0" style="fill:red;stroke:black;stroke-width:1.0"/>
<circle cx="70" cy="158" r="7.0" style="fill:red;stroke:black;stroke-width:1.0"/>
<circle cx="176" cy="170" r="7.0" style="fill:red;stroke:black;stroke-width:1.0"/>
<circle cx="368" cy="177" r="7.0" style="fill:red;stroke:black;stroke-width:1.0"/>
<circle cx="368" cy="177" r="7.0" style="fill:red;stroke:black;stroke-width:1.0"/>
<circle cx="368" cy="177" r="7.0" style="fill:red;stroke:black;stroke-width:1.0"/>
<circle cx="368" cy="177" r="7.0" style="fill:red;stroke:black;stroke-width:1.0"/>
<circle cx="368" cy="177" r="7.0" style="fill:red;stroke:black;stroke-width:1.0"/>
<circle cx="368" cy="177" r="7.0" style="fill:red;stroke:black;stroke-width:1.0"/>
<circle cx="368" cy="177" r="7.0" style="fill:red;stroke:black;stroke-width:1.0"/>
<circle cx="368" cy="177" r="7.0" style="fill:red;stroke:black;stroke-width:1.0"/>
<circle cx="368" cy="177" r="7.0" style="fill:red;stroke:black;stroke-width:1.0"/>
<circle cx="368" cy="177" r="7.0" style="fill:red;stroke:black;stroke-width:1.0"/>
<circle cx="368" cy="177" r="7.0" style="fill:red;stroke:black;stroke-width:1.0"/>
<circle cx="368" cy="177" r="7.0" style="fill:red;stroke:black;stroke-width:1.0"/>
<circle cx="368" cy="177" r="7.0" style="fill:red;stroke:black;stroke-width:1.0"/>
<circle cx="368" cy="177" r="7.0" style="fill:red;stroke:black;stroke-width:1.0"/>
<circle cx="368" cy="177" r="7.0" style="fill:red;stroke:black;stroke-width:1.0"/>
<circle cx="463" cy="243" r="7.0" style="fill:red;stroke:black;stroke-width:1.0"/>
<circle cx="368" cy="177" r="7.0" style="fill:red;stroke:black;stroke-width:1.0"/>
<circle cx="368" cy="177" r="7.0" style="fill:red;stroke:black;stroke-width:1.0"/>
<circle cx="368" cy="177" r="7.0" style="fill:red;stroke:black;stroke-width:1.0"/>
<circle cx="368" cy="177" r="7.0" style="fill:red;stroke:black;stroke-width:1.0"/>
<circle cx="368" cy="177" r="7.0" style="fill:red;stroke:black;stroke-width:1.0"/>
<circle cx="368" cy="177" r="7.0" style="fill:red;stroke:black;stroke-width:1.0"/>
<circle cx="368" cy="177" r="7.0" style="fill:red;stroke:black;stroke-width:1.0"/>
<circle cx="70" cy="158" r="7.0" style="fill:red;stroke:black;stroke-width:1.0"/>
<circle cx="368" cy="177" r="7.0" style="fill:red;stroke:black;stroke-width:1.0"/>
<circle cx="368" cy="177" r="7.0" style="fill:red;stroke:black;stroke-width:1.0"/>
<circle cx="368" cy="177" r="7.0" style="fill:red;stroke:black;stroke-width:1.0"/>
<circle cx="368" cy="177" r="7.0" style="fill:red;stroke:black;stroke-width:1.0"/>
<circle cx="368" cy="177" r="7.0" style="fill:red;stroke:black;stroke-width:1.0"/>
<circle cx="368" cy="177" r="7.0" style="fill:red;stroke:black;stroke-width:1.0"/>
<circle cx="368" cy="177" r="7.0" style="fill:red;stroke:black;stroke-width:1.0"/>
<circle cx="368" cy="177" r="7.0" style="fill:red;stroke:black;stroke-width:1.0"/>
<circle cx="368" cy="177" r="7.0" style="fill:red;stroke:black;stroke-width:1.0"/>
<circle cx="368" cy="177" r="7.0" style="fill:red;stroke:black;stroke-width:1.0"/>
<circle cx="368" cy="177" r="7.0" style="fill:red;stroke:black;stroke-width:1.0"/>
<circle cx="368" cy="177" r="7.0" style="fill:red;stroke:black;stroke-width:1.0"/>
<circle cx="368" cy="177" r="7.0" style="fill:red;stroke:black;stroke-width:1.0"/>
<circle cx="368" cy="177" r="7.0" style="fill:red;stroke:black;stroke-width:1.0"/>
<circle cx="368" cy="177" r="7.0" style="fill:red;stroke:black;stroke-width:1.0"/>
<circle cx="368" cy="177" r="7.0" style="fill:red;stroke:black;stroke-width:1.0"/>
<circle cx="368" cy="177" r="7.0" style="fill:red;stroke:black;stroke-width:1.0"/>
<circle cx="368" cy="177" r="7.0" style="fill:red;stroke:black;stroke-width:1.0"/>
<circle cx="368" cy="177" r="7.0" style="fill:red;stroke:black;stroke-width:1.0"/>
<circle cx="368" cy="177" r="7.0" style="fill:red;stroke:black;stroke-width:1.0"/>
<circle cx="368" cy="177" r="7.0" style="fill:red;stroke:black;stroke-width:1.0"/>
<circle cx="368" cy="177" r="7.0" style="fill:red;stroke:black;stroke-width:1.0"/>
<circle cx="368" cy="177" r="7.0" style="fill:red;stroke:black;stroke-width:1.0"/>
<circle cx="368" cy="177" r="7.0" style="fill:red;stroke:black;stroke-width:1.0"/>
<circle cx="368" cy="177" r="7.0" style="fill:red;stroke:black;stroke-width:1.0"/>
<circle cx="368" cy="177" r="7.0" style="fill:red;stroke:black;stroke-width:1.0"/>
<circle cx="368" cy="177" r="7.0" style="fill:red;stroke:black;stroke-width:1.0"/>
<circle cx="368" cy="177" r="7.0" style="fill:red;stroke:black;stroke-width:1.0"/>
<circle cx="368" cy="177" r="7.0" style="fill:red;stroke:black;stroke-width:1.0"/>
<circle cx="368" cy="177" r="7.0" style="fill:red;stroke:black;stroke-width:1.0"/>
<circle cx="368" cy="177" r="7.0" style="fill:red;stroke:black;stroke-width:1.0"/>
<circle cx="368" cy="177" r="7.0" style="fill:red;stroke:black;stroke-width:1.0"/>
<circle cx="368" cy="177" r="7.0" style="fill:red;stroke:black;stroke-width:1.0"/>
<circle cx="368" cy="177" r="7.0" style="fill:red;stroke:black;stroke-width:1.0"/>
<circle cx="368" cy="177" r="7.0" style="fill:red;stroke:black;stroke-width:1.0"/>
<circle cx="444" cy="176" r="7.0" style="fill:red;stroke:black;stroke-width:1.0"/>
<circle cx="368" cy="177" r="7.0" style="fill:red;stroke:black;stroke-width:1.0"/>
<circle cx="368" cy="177" r="7.0" style="fill:red;stroke:black;stroke-width:1.0"/>
<circle cx="368" cy="177" r="7.0" style="fill:red;stroke:black;stroke-width:1.0"/>
<circle cx="368" cy="177" r="7.0" style="fill:red;stroke:black;stroke-width:1.0"/>
<circle cx="368" cy="177" r="7.0" style="fill:red;stroke:black;stroke-width:1.0"/>
<circle cx="368" cy="177" r="7.0" style="fill:red;stroke:black;stroke-width:1.0"/>
<circle cx="368" cy="177" r="7.0" style="fill:red;stroke:black;stroke-width:1.0"/>
<circle cx="368" cy="177" r="7.0" style="fill:red;stroke:black;stroke-width:1.0"/>
<circle cx="368" cy="177" r="7.0" style="fill:red;stroke:black;stroke-width:1.0"/>
<circle cx="368" cy="177" r="7.0" style="fill:red;stroke:black;stroke-width:1.0"/>
<circle cx="368" cy="177" r="7.0" style="fill:red;stroke:black;stroke-width:1.0"/>
<circle cx="368" cy="177" r="7.0" style="fill:red;stroke:black;stroke-width:1.0"/>
<circle cx="368" cy="177" r="7.0" style="fill:red;stroke:black;stroke-width:1.0"/>
<circle cx="368" cy="177" r="7.0" style="fill:red;stroke:black;stroke-width:1.0"/>
<circle cx="368" cy="177" r="7.0" style="fill:red;stroke:black;stroke-width:1.0"/>
<circle cx="368" cy="177" r="7.0" style="fill:red;stroke:black;stroke-width:1.0"/>
<circle cx="368" cy="177" r="7.0" style="fill:red;stroke:black;stroke-width:1.0"/>
<circle cx="368" cy="177" r="7.0" style="fill:red;stroke:black;stroke-width:1.0"/>
<circle cx="368" cy="177" r="7.0" style="fill:red;stroke:black;stroke-width:1.0"/>
<circle cx="368" cy="177" r="7.0" style="fill:red;stroke:black;stroke-width:1.0"/>
<circle cx="368" cy="177" r="7.0" style="fill:red;stroke:black;stroke-width:1.0"/>
<circle cx="368" cy="177" r="7.0" style="fill:red;stroke:black;stroke-width:1.0"/>
<circle cx="368" cy="177" r="7.0" style="fill:red;stroke:black;stroke-width:1.0"/>
<circle cx="368" cy="177" r="7.0" style="fill:red;stroke:black;stroke-width:1.0"/>
<circle cx="460" cy="20" r="7.0" style="fill:red;stroke:black;stroke-width:1.0"/>
<text text-anchor="end" x="451" y="235" font-size="10">FRP2/3</text><text text-anchor="end" x="448" y="226" font-size="10">FRP5</text><text text-anchor="end" x="358" y="177" font-size="10">FRP6a</text><text text-anchor="end" x="425" y="102" font-size="10">MOp2/3</text><text text-anchor="end" x="431" y="140" font-size="10">MOp5</text><text text-anchor="end" x="439" y="51" font-size="10">MOp6a</text><text text-anchor="end" x="459" y="275" font-size="10">MOs1</text><text text-anchor="end" x="459" y="275" font-size="10">MOs2/3</text><text text-anchor="end" x="448" y="226" font-size="10">MOs5</text><text text-anchor="end" x="459" y="275" font-size="10">MOs6a</text><text text-anchor="end" x="447" y="252" font-size="10">SSp-n4</text><text text-anchor="end" x="428" y="267" font-size="10">SSp-n5</text><text text-anchor="end" x="445" y="302" font-size="10">SSp-n6a</text><text text-anchor="end" x="401" y="319" font-size="10">SSp-bfd2/3</text><text text-anchor="end" x="401" y="320" font-size="10">SSp-bfd4</text><text text-anchor="end" x="419" y="249" font-size="10">SSp-bfd5</text><text text-anchor="end" x="401" y="319" font-size="10">SSp-bfd6a</text><text text-anchor="end" x="460" y="39" font-size="10">SSp-ll2/3</text><text text-anchor="end" x="440" y="108" font-size="10">SSp-ll4</text><text text-anchor="end" x="447" y="112" font-size="10">SSp-ll5</text><text text-anchor="end" x="455" y="23" font-size="10">SSp-ll6a</text><text text-anchor="end" x="414" y="114" font-size="10">SSp-m2/3</text><text text-anchor="end" x="422" y="135" font-size="10">SSp-m4</text><text text-anchor="end" x="420" y="152" font-size="10">SSp-m5</text><text text-anchor="end" x="403" y="126" font-size="10">SSp-m6a</text><text text-anchor="end" x="373" y="134" font-size="10">SSp-ul2/3</text><text text-anchor="end" x="424" y="134" font-size="10">SSp-ul4</text><text text-anchor="end" x="424" y="134" font-size="10">SSp-ul5</text><text text-anchor="end" x="452" y="85" font-size="10">SSp-tr5</text><text text-anchor="end" x="341" y="248" font-size="10">SSs4</text><text text-anchor="end" x="359" y="177" font-size="10">SSs5</text><text text-anchor="end" x="342" y="151" font-size="10">SSs6a</text><text text-anchor="end" x="436" y="177" font-size="10">VISC5</text><text text-anchor="end" x="436" y="177" font-size="10">VISC6a</text><text text-anchor="end" x="211" y="173" font-size="10">AUDd2/3</text><text text-anchor="end" x="211" y="173" font-size="10">AUDd4</text><text text-anchor="end" x="122" y="167" font-size="10">AUDd5</text><text text-anchor="end" x="171" y="170" font-size="10">AUDd6a</text><text text-anchor="end" x="122" y="167" font-size="10">AUDp4</text><text text-anchor="end" x="122" y="167" font-size="10">AUDp5</text><text text-anchor="end" x="122" y="167" font-size="10">AUDp6a</text><text text-anchor="end" x="358" y="177" font-size="10">AUDpo5</text><text text-anchor="end" x="67" y="159" font-size="10">AUDpo6a</text><text x="444" y="110" font-size="10">FRP</text><text x="477" y="263" font-size="10">MOp</text><text x="463" y="287" font-size="10">MOs</text><text x="420" y="303" font-size="10">SSp-n</text><text x="474" y="60" font-size="10">SSp-bfd</text><text x="422" y="131" font-size="10">SSp-ll</text><text x="429" y="130" font-size="10">SSp-m</text><text x="479" y="48" font-size="10">SSp-ul</text><text x="378" y="177" font-size="10">SSp-tr</text><text x="304" y="176" font-size="10">SSp-un</text><text x="378" y="177" font-size="10">SSs</text><text x="378" y="177" font-size="10">GU</text><text x="167" y="169" font-size="10">VISC</text><text x="132" y="165" font-size="10">AUDd</text><text x="80" y="158" font-size="10">AUDp</text><text x="186" y="170" font-size="10">AUDpo</text><text x="378" y="177" font-size="10">AUDv</text><text x="378" y="177" font-size="10">VISal</text><text x="378" y="177" font-size="10">VISam</text><text x="378" y="177" font-size="10">VISl</text><text x="378" y="177" font-size="10">VISp</text><text x="378" y="177" font-size="10">VISpl</text><text x="378" y="177" font-size="10">VISpm</text><text x="378" y="177" font-size="10">VISli</text><text x="378" y="177" font-size="10">VISpor</text><text x="378" y="177" font-size="10">ACAd</text><text x="378" y="177" font-size="10">ACAv</text><text x="378" y="177" font-size="10">PL</text><text x="378" y="177" font-size="10">ILA</text><text x="378" y="177" font-size="10">ORBl</text><text x="378" y="177" font-size="10">ORBm</text><text x="473" y="243" font-size="10">ORBvl</text><text x="378" y="177" font-size="10">AId</text><text x="378" y="177" font-size="10">AIp</text><text x="378" y="177" font-size="10">AIv</text><text x="378" y="177" font-size="10">RSPagl</text><text x="378" y="177" font-size="10">RSPd</text><text x="378" y="177" font-size="10">RSPv</text><text x="378" y="177" font-size="10">VISa</text><text x="80" y="158" font-size="10">VISrl</text><text x="378" y="177" font-size="10">TEa</text><text x="378" y="177" font-size="10">PERI</text><text x="378" y="177" font-size="10">ECT</text><text x="378" y="177" font-size="10">MOB</text><text x="378" y="177" font-size="10">AOB</text><text x="378" y="177" font-size="10">AON</text><text x="378" y="177" font-size="10">TT</text><text x="378" y="177" font-size="10">DP</text><text x="378" y="177" font-size="10">PIR</text><text x="378" y="177" font-size="10">NLOT</text><text x="378" y="177" font-size="10">COAa</text><text x="378" y="177" font-size="10">COAp</text><text x="378" y="177" font-size="10">PAA</text><text x="378" y="177" font-size="10">TR</text><text x="378" y="177" font-size="10">CA1</text><text x="378" y="177" font-size="10">CA2</text><text x="378" y="177" font-size="10">CA3</text><text x="378" y="177" font-size="10">DG</text><text x="378" y="177" font-size="10">FC</text><text x="378" y="177" font-size="10">IG</text><text x="378" y="177" font-size="10">ENTl</text><text x="378" y="177" font-size="10">ENTm</text><text x="378" y="177" font-size="10">PAR</text><text x="378" y="177" font-size="10">POST</text><text x="378" y="177" font-size="10">PRE</text><text x="378" y="177" font-size="10">SUB</text><text x="378" y="177" font-size="10">ProS</text><text x="378" y="177" font-size="10">HATA</text><text x="378" y="177" font-size="10">APr</text><text x="378" y="177" font-size="10">CLA</text><text x="378" y="177" font-size="10">EPd</text><text x="378" y="177" font-size="10">EPv</text><text x="378" y="177" font-size="10">LA</text><text x="378" y="177" font-size="10">BLA</text><text x="378" y="177" font-size="10">BMA</text><text x="454" y="176" font-size="10">PA</text><text x="378" y="177" font-size="10">CP</text><text x="378" y="177" font-size="10">ACB</text><text x="378" y="177" font-size="10">FS</text><text x="378" y="177" font-size="10">OT</text><text x="378" y="177" font-size="10">LSc</text><text x="378" y="177" font-size="10">LSr</text><text x="378" y="177" font-size="10">LSv</text><text x="378" y="177" font-size="10">SF</text><text x="378" y="177" font-size="10">SH</text><text x="378" y="177" font-size="10">AAA</text><text x="378" y="177" font-size="10">BA</text><text x="378" y="177" font-size="10">CEA</text><text x="378" y="177" font-size="10">IA</text><text x="378" y="177" font-size="10">MEA</text><text x="378" y="177" font-size="10">GPe</text><text x="378" y="177" font-size="10">GPi</text><text x="378" y="177" font-size="10">SI</text><text x="378" y="177" font-size="10">MA</text><text x="378" y="177" font-size="10">MS</text><text x="378" y="177" font-size="10">NDB</text><text x="378" y="177" font-size="10">TRS</text><text x="378" y="177" font-size="10">BST</text><text x="378" y="177" font-size="10">BAC</text><text x="378" y="177" font-size="10">VAL</text><text x="470" y="20" font-size="10">VM</text></svg>
